<svg width="388" height="251" viewBox="0 0 388 251" fill="none" xmlns="http://www.w3.org/2000/svg">
<path d="M199.921 19.0254C182.072 11.0923 162.503 8.48665 143.087 10.8238C125.859 12.8976 106.133 18.3307 92.7248 29.9312C81.4074 39.7227 74.1572 54.4692 69.3615 68.3233C57.3923 102.901 56.8663 154.331 93.1681 175.209C110.356 185.095 132.341 186.405 151.687 186.071C181.112 185.564 207.973 178.42 234.279 165.235C263.833 150.422 304.645 125.253 302.95 86.8544C301.496 53.8961 267.294 36.3787 239.821 27.4486C225.158 22.6826 210.333 23.0912 195.222 22.04C193.555 21.924 187.967 22.248 187.153 20.6214" stroke="white" stroke-width="20" stroke-linecap="round"/>
<path d="M10 58.9248C18.4459 67.6347 26.3774 75.6808 37.3089 81.4458C52.7417 89.5847 69.8197 93.9443 86.9616 96.6963C115.431 101.267 144.541 102.305 173.322 101.307C227.255 99.4363 282.651 91.139 333.983 74.0866C346.716 69.8568 359.119 64.7183 371.489 59.5455C373.72 58.6125 375.532 58.0734 377.075 56.5308" stroke="white" stroke-width="20" stroke-linecap="round"/>
<path d="M83.2394 54.825C83.7902 65.2898 88.4156 75.947 89.9731 86.3508C91.4293 96.0787 90.5852 106.356 90.5852 116.193C90.5852 118.031 90.2375 119.088 91.7585 116.958C96.2256 110.704 101.169 104.451 106.195 98.6449C110.944 93.1588 116.638 88.3331 122.672 84.3103C125.331 82.538 129.248 81.3079 130.987 78.6989" stroke="white" stroke-width="20" stroke-linecap="round"/>
<path d="M144.761 57.5797C132.481 57.5797 120.316 68.8757 116.296 79.8212C109.078 99.47 124.691 112.722 142.72 116.856C152.976 119.208 164.269 119.069 171.389 110.429C177.938 102.482 180.97 90.8075 176.286 81.1476C168.663 65.4243 142.795 66.762 128.233 66.762" stroke="white" stroke-width="20" stroke-linecap="round"/>
<path d="M160.371 52.9886C171.679 52.9886 175.763 66.3061 180.98 74.5159C182.379 76.7176 202.292 110.358 204.394 109.307C205.589 108.709 204.645 106.646 204.854 105.328C205.824 99.1938 207.304 93.1335 209.19 87.2181C212.53 76.7423 217.413 69.0519 226.483 62.783C233.891 57.6624 239.978 56.6615 248.52 56.6615" stroke="white" stroke-width="20" stroke-linecap="round"/>
<path d="M265.967 64.9255C253.74 65.6048 237.636 72.2292 230.564 82.5759C225.608 89.8264 226.483 98.7585 226.483 107.062C226.483 114.735 236.366 112.412 242.501 112.673C256.985 113.29 271.558 113.937 285.964 115.632C291.254 116.254 299.91 116.02 304.532 119.101" stroke="white" stroke-width="20" stroke-linecap="round"/>
<path d="M101.604 141.138C99.4154 139.348 94.9166 139.678 92.3196 139.506C86.6219 139.129 80.8868 138.591 75.1794 138.435C62.4928 138.087 45.9341 137.248 34.3693 143.434C15.5984 153.474 55.8111 180.934 63.7015 184.652C75.692 190.303 88.5735 191.172 100.992 195.11C105.73 196.612 106.835 200.116 102.318 203.374C91.0317 211.515 73.9711 214.597 60.2837 214.597" stroke="white" stroke-width="20" stroke-linecap="round"/>
<path d="M138.333 153.075C132.208 152.667 128.93 152.038 125.019 157.309C119.459 164.803 119.174 177.727 120.173 186.591C122.839 210.258 155.786 216.265 175.062 212.76" stroke="white" stroke-width="20" stroke-linecap="round"/>
<path d="M153.025 220.106C153.475 218.306 154.817 216.854 155.779 215.311C158.757 210.535 160.915 205.267 163.125 200.109C166.412 192.441 169.006 184.598 171.797 176.745C174.97 167.821 179.371 159.3 182.204 150.27C183.352 146.609 184.039 142.376 185.622 138.894C187.282 135.242 199.131 151.78 200.568 153.483C210.114 164.798 221.676 175.504 229.952 187.764C233.77 193.42 235.36 201.556 232.808 208.118C230.138 214.986 227.022 221.782 223.728 228.37" stroke="white" stroke-width="20" stroke-linecap="round"/>
<path d="M223.728 146.648C226.364 157.193 235.54 166.902 240.256 176.643C245.951 188.405 250.498 200.769 253.111 213.576C254.922 222.446 254.103 213.231 252.397 209.291C251.031 206.136 248.52 202.533 248.52 198.987" stroke="white" stroke-width="20" stroke-linecap="round"/>
<path d="M234.747 145.73C247.717 145.405 260.559 142.975 273.517 142.975C286.54 142.975 299.94 144.674 312.541 147.974C318.038 149.414 319.109 151.275 318.102 156.952C316.088 168.303 299.317 174.798 291.371 181.489C288.118 184.228 280.299 189.394 282.189 194.549C285.118 202.538 291.784 209.13 295.146 217.147C297.616 223.036 294.436 230.216 297.186 235.716" stroke="white" stroke-width="20" stroke-linecap="round"/>
<path d="M345.853 103.491C340.244 104.001 330.243 107.585 330.243 114C330.243 116.742 331.85 116.643 333.456 118.744C341.25 128.935 344.734 144.717 348.25 156.544C352.77 171.748 359.469 187.046 363.095 202.456C364.082 206.649 362.786 209.016 359.422 211.638C351.55 217.772 342.684 221.191 335.956 228.88C333.296 231.921 329.324 236.023 329.324 240.307" stroke="white" stroke-width="20" stroke-linecap="round"/>
</svg>
