<svg width="527" height="71" viewBox="0 0 527 71" fill="none" xmlns="http://www.w3.org/2000/svg">
<path d="M32.752 65.904C31.92 66.096 31.056 66.032 30.16 65.712C29.904 65.648 29.68 65.552 29.488 65.424C29.36 65.296 29.2 65.168 29.008 65.04C28.56 64.72 28.208 64.24 27.952 63.6L27.568 62.352C27.568 62.224 27.536 62.128 27.472 62.064C27.472 61.936 27.472 61.84 27.472 61.776C27.472 60.88 27.408 60.016 27.28 59.184C27.152 58.288 27.024 57.424 26.896 56.592C26.768 55.952 26.64 55.312 26.512 54.672C26.448 54.032 26.352 53.392 26.224 52.752C26.224 52.624 26.192 52.528 26.128 52.464C26.128 52.4 26.128 52.336 26.128 52.272C26 51.504 25.872 50.736 25.744 49.968C25.616 49.2 25.488 48.464 25.36 47.76C25.296 47.376 25.232 46.992 25.168 46.608C25.168 46.224 25.104 45.84 24.976 45.456L24.4 41.232C24.336 40.656 24.24 40.08 24.112 39.504C24.048 38.864 23.952 38.224 23.824 37.584C23.76 36.944 23.664 36.336 23.536 35.76C23.408 35.12 23.28 34.512 23.152 33.936L21.712 27.6C21.584 26.896 21.456 26.192 21.328 25.488C21.2 24.784 21.04 24.112 20.848 23.472C20.656 22.896 20.496 22.32 20.368 21.744C20.24 21.104 20.048 20.496 19.792 19.92L19.696 19.536C19.504 18.704 19.248 17.904 18.928 17.136C18.672 16.368 18.384 15.6 18.064 14.832C18.064 14.768 18.032 14.736 17.968 14.736C17.968 14.672 17.968 14.64 17.968 14.64C17.84 14.256 17.616 14.128 17.296 14.256C17.232 14.32 17.136 14.352 17.008 14.352C16.752 14.416 16.496 14.512 16.24 14.64C16.048 14.768 15.824 14.896 15.568 15.024C14.928 15.216 14.384 15.504 13.936 15.888L11.344 17.712C10.96 17.904 10.608 18.16 10.288 18.48C10.032 18.8 9.776 19.12 9.52 19.44C9.328 19.696 9.232 19.984 9.232 20.304L8.944 22.032C8.88 22.672 8.816 23.344 8.752 24.048C8.688 24.752 8.624 25.456 8.56 26.16C8.496 26.8 8.4 27.408 8.272 27.984C8.208 28.496 8.176 29.072 8.176 29.712C8.176 30.224 8.08 30.768 7.888 31.344C7.696 32.048 7.216 32.496 6.448 32.688C5.872 32.752 5.392 32.56 5.008 32.112C4.688 31.792 4.464 31.312 4.336 30.672C4.272 30.224 4.208 29.808 4.144 29.424C4.08 29.04 4.048 28.624 4.048 28.176V25.296C4.048 24.72 4.016 24.176 3.952 23.664C3.952 23.152 3.984 22.672 4.048 22.224C4.048 21.136 3.792 20.08 3.28 19.056L1.84 16.08C1.584 15.568 1.36 14.896 1.168 14.064C0.976 13.168 0.88 12.432 0.88 11.856C1.008 10.384 1.552 9.168 2.512 8.20799C3.344 7.376 4.304 6.832 5.392 6.576C5.776 6.448 6.288 6.32 6.928 6.192L12.016 5.328C12.528 5.264 13.008 5.2 13.456 5.136C13.968 5.008 14.448 4.912 14.896 4.848C15.856 4.72 16.816 4.592 17.776 4.464C18.8 4.336 19.824 4.24 20.848 4.17599C21.424 4.112 22 4.048 22.576 3.984C23.152 3.92 23.728 3.856 24.304 3.792H24.688C25.264 3.728 25.808 3.696 26.32 3.696C26.896 3.632 27.472 3.568 28.048 3.504C28.368 3.44 28.688 3.408 29.008 3.408C29.328 3.408 29.616 3.376 29.872 3.31199C29.936 3.248 30.064 3.216 30.256 3.216L33.808 2.928C34.512 2.864 35.184 2.8 35.824 2.736C36.528 2.672 37.232 2.608 37.936 2.544C38.512 2.48 39.088 2.41599 39.664 2.352C40.24 2.224 40.816 2.032 41.392 1.776C41.968 1.52 42.544 1.456 43.12 1.584C43.76 1.648 44.336 1.808 44.848 2.064C45.04 2.128 45.2 2.256 45.328 2.44799C45.52 2.576 45.68 2.704 45.808 2.832C46.128 3.15199 46.384 3.536 46.576 3.984C46.768 4.368 46.96 4.752 47.152 5.136C47.344 5.52 47.344 5.904 47.152 6.288C47.024 6.544 46.928 6.832 46.864 7.152C46.864 7.408 46.832 7.696 46.768 8.016C46.768 8.336 46.672 8.592 46.48 8.784C46.352 8.848 46.224 8.944 46.096 9.07199C45.968 9.2 45.84 9.328 45.712 9.456C45.52 9.52 45.328 9.712 45.136 10.032C44.752 10.544 44.208 10.8 43.504 10.8C43.248 10.8 42.992 10.832 42.736 10.896C42.544 10.96 42.32 11.024 42.064 11.088C41.488 11.216 41.104 11.408 40.912 11.664C40.592 11.984 40.24 12.144 39.856 12.144C39.408 12.272 39.056 12.144 38.8 11.76C38.736 11.568 38.576 11.472 38.32 11.472C38.064 11.536 37.776 11.568 37.456 11.568C37.2 11.568 36.944 11.568 36.688 11.568C36.432 11.632 36.144 11.664 35.824 11.664C35.568 11.664 35.28 11.696 34.96 11.76C34.704 11.76 34.48 11.792 34.288 11.856C34.096 11.856 33.872 11.856 33.616 11.856C32.976 11.92 32.304 11.984 31.6 12.048C30.96 12.112 30.288 12.176 29.584 12.24C29.2 12.24 28.912 12.272 28.72 12.336C28.464 12.464 28.336 12.656 28.336 12.912C28.272 13.168 28.272 13.488 28.336 13.872L28.912 16.848C29.04 17.424 29.168 18.032 29.296 18.672C29.424 19.248 29.552 19.856 29.68 20.496L29.968 22.608C29.968 22.864 29.968 23.12 29.968 23.376C30.032 23.568 30.096 23.792 30.16 24.048C30.288 24.816 30.416 25.584 30.544 26.352C30.736 27.12 30.864 27.888 30.928 28.656L31.024 29.04C31.28 29.872 31.472 30.704 31.6 31.536C31.728 32.368 31.856 33.232 31.984 34.128C32.112 34.704 32.24 35.312 32.368 35.952C32.496 36.528 32.592 37.104 32.656 37.68C32.72 38.128 32.784 38.576 32.848 39.024C32.912 39.408 32.976 39.824 33.04 40.272V40.752C33.104 41.264 33.168 41.776 33.232 42.288C33.36 42.736 33.456 43.216 33.52 43.728L33.808 46.608C33.872 47.056 33.936 47.504 34 47.952C34.064 48.4 34.128 48.88 34.192 49.392C34.192 49.52 34.192 49.68 34.192 49.872C34.256 50 34.288 50.128 34.288 50.256C34.288 50.576 34.32 50.928 34.384 51.312C34.448 51.632 34.512 51.984 34.576 52.368C34.704 53.072 34.832 53.808 34.96 54.576C35.088 55.28 35.216 56.016 35.344 56.784C35.408 57.232 35.504 57.68 35.632 58.128C35.76 58.512 35.856 58.928 35.92 59.376C35.984 59.696 36.176 60.016 36.496 60.336C36.752 60.528 36.816 60.752 36.688 61.008C36.496 61.264 36.368 61.552 36.304 61.872C36.304 62.192 36.272 62.512 36.208 62.832C36.208 63.088 36.176 63.28 36.112 63.408C36.112 63.728 35.984 63.952 35.728 64.08C35.472 64.208 35.216 64.464 34.96 64.848C34.64 65.168 34.384 65.392 34.192 65.52C34 65.712 33.744 65.808 33.424 65.808C33.296 65.744 33.072 65.776 32.752 65.904ZM61.4643 67.92C60.2483 68.048 59.2563 67.664 58.4883 66.768C58.1043 66.384 57.7523 65.968 57.4323 65.52C57.1123 65.072 56.8563 64.592 56.6643 64.08C56.3443 63.184 56.0563 62.288 55.8003 61.392C55.5443 60.432 55.3203 59.504 55.1283 58.608C54.9363 57.904 54.8403 57.232 54.8403 56.592C54.7763 55.888 54.6803 55.216 54.5523 54.576C54.4883 53.872 54.4563 53.168 54.4563 52.464C54.4563 52.08 54.4563 51.696 54.4563 51.312C54.4563 50.864 54.4243 50.448 54.3603 50.064C54.2963 49.808 54.2643 49.584 54.2643 49.392C54.2643 49.2 54.2643 48.976 54.2643 48.72C54.2643 47.824 54.2643 46.928 54.2643 46.032C54.2643 45.072 54.2323 44.144 54.1683 43.248C54.1683 42.736 54.1363 42.288 54.0723 41.904C54.0083 41.456 53.8803 41.008 53.6883 40.56C53.4323 39.856 53.4003 39.088 53.5923 38.256C53.5923 38.064 53.6243 37.936 53.6883 37.872C53.8163 37.424 53.8803 36.976 53.8803 36.528C53.9443 36.08 53.9443 35.632 53.8803 35.184C53.8163 34.864 53.7843 34.544 53.7843 34.224C53.7843 33.904 53.7843 33.616 53.7843 33.36C53.7203 32.656 53.6883 31.952 53.6883 31.248C53.7523 30.48 53.8163 29.744 53.8803 29.04C53.9443 28.848 53.9763 28.656 53.9763 28.464C53.9763 28.272 53.9763 28.08 53.9763 27.888C53.9123 27.184 53.9123 26.512 53.9763 25.872C54.1043 25.232 54.2003 24.592 54.2643 23.952C54.3923 23.184 54.5203 22.448 54.6483 21.744C54.7763 20.976 54.9363 20.208 55.1283 19.44C55.2563 19.12 55.3203 18.768 55.3203 18.384C55.3203 18 55.3203 17.616 55.3203 17.232C55.3203 16.912 55.2883 16.592 55.2243 16.272C55.2243 15.952 55.2243 15.664 55.2243 15.408C55.2243 15.216 55.2243 15.024 55.2243 14.832C55.2243 14.64 55.2563 14.448 55.3203 14.256C55.3843 14.064 55.4163 13.872 55.4163 13.68C55.4163 13.488 55.4483 13.36 55.5123 13.296C55.7043 13.04 55.8643 12.816 55.9922 12.624C56.1203 12.368 56.3123 12.144 56.5683 11.952C56.8883 11.76 57.1763 11.568 57.4323 11.376C57.7523 11.184 58.0403 11.024 58.2963 10.896C58.6163 10.768 58.8723 10.608 59.0643 10.416C59.3203 10.096 59.5763 9.808 59.8323 9.552C60.1523 9.232 60.4083 8.88 60.6003 8.496C60.9203 8.176 61.2403 7.824 61.5603 7.44C61.9443 6.992 62.3603 6.64 62.8083 6.384C62.9363 6.32 63.1283 6.16 63.3843 5.904C64.1523 5.2 65.0483 4.752 66.0723 4.56C66.2643 4.496 66.4243 4.464 66.5523 4.464C66.7443 4.4 66.9363 4.368 67.1283 4.368L67.8003 4.08C68.3123 3.888 68.7603 3.984 69.1443 4.368C69.2723 4.56 69.4323 4.752 69.6243 4.944C69.8803 5.072 70.1043 5.2 70.2963 5.328C70.8083 5.776 71.2883 6.256 71.7363 6.768C72.2483 7.28 72.6963 7.856 73.0803 8.496C73.7203 9.52 74.2643 10.544 74.7123 11.568C75.2243 12.592 75.7043 13.648 76.1523 14.736L77.8802 18.864C77.9443 19.248 78.1043 19.6 78.3603 19.92C78.8723 20.88 79.2563 21.872 79.5123 22.896C79.7683 23.856 80.0243 24.848 80.2803 25.872C80.3443 26 80.3763 26.128 80.3763 26.256C80.4403 26.384 80.4723 26.512 80.4723 26.64C80.6003 27.152 80.6963 27.696 80.7603 28.272C80.8883 28.784 80.9203 29.296 80.8563 29.808C80.9203 30.384 80.8883 30.96 80.7603 31.536C80.6963 32.048 80.6003 32.56 80.4723 33.072C80.2803 33.712 80.0563 34.32 79.8003 34.896C79.5443 35.408 79.2563 35.952 78.9363 36.528C78.8083 36.912 78.5843 37.264 78.2643 37.584C77.9443 37.904 77.6243 38.192 77.3043 38.448C76.7923 38.704 76.2803 39.088 75.7683 39.6C75.6403 39.728 75.4803 39.824 75.2883 39.888C75.1603 39.952 75.0323 40.048 74.9043 40.176C74.4563 40.368 73.9763 40.592 73.4643 40.848C72.9523 41.04 72.4403 41.232 71.9283 41.424C71.8643 41.424 71.8323 41.488 71.8323 41.616C71.8323 41.68 71.8643 41.744 71.9283 41.808L74.5203 43.632C74.8403 43.824 75.1283 44.016 75.3843 44.208C75.6403 44.336 75.8963 44.496 76.1523 44.688L76.7283 44.976C77.4963 45.424 78.2643 45.904 79.0323 46.416C79.8003 46.928 80.5363 47.44 81.2403 47.952C82.5843 48.784 83.9283 49.648 85.2723 50.544C86.6163 51.376 87.8963 52.304 89.1123 53.328C90.2003 54.16 91.1603 55.12 91.9923 56.208C92.1843 56.4 92.3763 56.624 92.5683 56.88C92.7603 57.072 92.9843 57.232 93.2403 57.36L93.5283 57.648C94.5523 58.544 95.1283 59.76 95.2563 61.296C95.2563 61.488 95.2243 61.68 95.1603 61.872C95.1603 62.064 95.1603 62.256 95.1603 62.448C95.1603 62.832 95.0323 63.152 94.7763 63.408C94.5203 63.536 94.3923 63.696 94.3923 63.888C94.2003 64.336 93.9123 64.656 93.5283 64.848C93.2083 64.976 92.8883 65.168 92.5683 65.424C92.4403 65.488 92.2163 65.52 91.8963 65.52C91.5123 65.456 91.0963 65.392 90.6483 65.328C90.2643 65.264 89.8803 65.232 89.4963 65.232C88.9843 65.232 88.4403 65.008 87.8643 64.56C87.4803 64.24 87.1283 63.952 86.8083 63.696C86.4883 63.376 86.1683 62.992 85.8483 62.544C85.0163 61.392 83.9283 60.336 82.5843 59.376C81.9443 58.864 81.3363 58.384 80.7603 57.936C80.1843 57.488 79.5443 57.072 78.8403 56.688C78.3923 56.432 77.9443 56.176 77.4963 55.92C77.1123 55.6 76.6643 55.312 76.1523 55.056C74.5523 53.968 72.9203 52.912 71.2563 51.888C69.5923 50.8 67.9283 49.712 66.2643 48.624C66.0083 48.432 65.7203 48.24 65.4003 48.048C65.0803 47.856 64.7603 47.664 64.4403 47.472C64.3123 47.344 64.1203 47.216 63.8643 47.088C63.6083 47.088 63.4803 47.184 63.4803 47.376C63.4803 47.44 63.4483 47.504 63.3843 47.568C63.3843 47.568 63.3843 47.6 63.3843 47.664C63.3843 47.856 63.3843 48.048 63.3843 48.24C63.3843 48.432 63.4163 48.624 63.4803 48.816C63.5443 49.328 63.5763 49.84 63.5763 50.352C63.5763 50.8 63.5763 51.28 63.5763 51.792C63.5763 52.176 63.5763 52.56 63.5763 52.944C63.6403 53.264 63.7043 53.616 63.7682 54C63.7682 54.192 63.7682 54.416 63.7682 54.672C63.8323 54.864 63.8643 55.056 63.8643 55.248C63.8003 55.824 63.8323 56.4 63.9603 56.976C64.0883 57.552 64.1843 58.128 64.2483 58.704L64.8243 61.2C64.8883 61.456 64.9523 61.744 65.0163 62.064C65.0803 62.32 65.1443 62.608 65.2083 62.928C65.2723 63.184 65.2723 63.44 65.2083 63.696C65.2083 63.888 65.1763 64.112 65.1123 64.368C65.1123 64.432 65.0483 64.528 64.9203 64.656C64.6003 64.72 64.3763 64.944 64.2483 65.328C64.0563 65.776 63.7683 66.16 63.3843 66.48C63.0643 66.864 62.7123 67.216 62.3282 67.536C62.2643 67.6 62.1363 67.664 61.9443 67.728C61.7523 67.792 61.5923 67.856 61.4643 67.92ZM65.2083 34.32H65.4003C66.1043 34.192 66.8083 34.064 67.5123 33.936C68.2803 33.744 69.0163 33.52 69.7203 33.264C70.4243 33.072 71.0323 32.72 71.5443 32.208C71.9923 31.76 72.2163 31.248 72.2163 30.672C72.2803 30.224 72.2803 29.808 72.2163 29.424C72.2163 28.976 72.1523 28.528 72.0243 28.08C71.7683 26.928 71.4803 25.808 71.1603 24.72C70.8403 23.568 70.4563 22.48 70.0083 21.456L69.1443 19.152C68.9523 18.512 68.7283 17.904 68.4723 17.328C68.2163 16.688 67.9283 16.08 67.6083 15.504C67.5443 15.376 67.4803 15.248 67.4163 15.12C67.3523 14.928 67.2883 14.768 67.2243 14.64L66.8403 14.256C66.6483 14 66.4243 14 66.1683 14.256C66.1043 14.256 66.0083 14.32 65.8803 14.448C65.4323 15.024 65.0163 15.632 64.6323 16.272C64.3123 16.912 64.1203 17.616 64.0563 18.384C63.9923 18.64 63.9283 18.896 63.8643 19.152C63.8643 19.408 63.8643 19.696 63.8643 20.016V24.144C63.8003 25.04 63.7682 25.968 63.7682 26.928C63.8323 27.888 63.8003 28.816 63.6723 29.712C63.6083 29.904 63.5763 30.096 63.5763 30.288C63.6403 30.48 63.6723 30.672 63.6723 30.864C63.7363 31.248 63.7682 31.632 63.7682 32.016C63.7682 32.336 63.7682 32.688 63.7682 33.072C63.7682 33.712 63.8323 34.096 63.9603 34.224C64.1523 34.352 64.5683 34.384 65.2083 34.32ZM110.489 66.96C110.105 66.96 109.849 66.928 109.721 66.864C109.465 66.736 109.241 66.64 109.049 66.576C108.857 66.512 108.665 66.448 108.473 66.384C108.281 66.256 108.089 66.128 107.897 66C107.769 65.808 107.641 65.616 107.513 65.424C107.385 65.296 107.257 65.232 107.129 65.232C106.745 65.232 106.553 65.04 106.553 64.656C106.489 64.272 106.425 63.888 106.361 63.504C106.297 63.12 106.233 62.736 106.169 62.352C106.105 61.776 106.041 61.2 105.977 60.624C105.977 60.048 105.913 59.504 105.785 58.992V58.128C105.785 57.872 105.753 57.648 105.689 57.456C105.689 57.264 105.689 57.04 105.689 56.784C105.561 56.464 105.561 56.208 105.689 56.016C105.817 54.864 105.817 53.712 105.689 52.56C105.625 52.24 105.593 51.92 105.593 51.6C105.593 51.28 105.561 50.96 105.497 50.64C105.497 50 105.497 49.36 105.497 48.72C105.497 48.016 105.433 47.344 105.305 46.704V45.168C105.305 44.656 105.273 44.176 105.209 43.728C105.209 43.28 105.177 42.832 105.113 42.384C105.049 41.808 104.985 41.232 104.921 40.656C104.921 40.08 104.889 39.504 104.825 38.928C104.761 38.8 104.729 38.576 104.729 38.256C104.665 37.936 104.601 37.616 104.537 37.296C104.537 36.912 104.537 36.56 104.537 36.24L104.249 31.44C104.185 30.928 104.121 30.448 104.057 30C104.057 29.488 104.057 29.008 104.057 28.56C103.993 27.792 103.929 27.024 103.865 26.256C103.801 25.488 103.737 24.752 103.673 24.048C103.673 23.92 103.641 23.792 103.577 23.664C103.577 23.536 103.577 23.44 103.577 23.376C103.577 22.608 103.545 21.84 103.481 21.072C103.417 20.304 103.353 19.504 103.289 18.672L103.001 15.984C102.809 14.96 102.777 13.84 102.905 12.624C102.905 12.048 103.129 11.568 103.577 11.184C103.705 11.056 103.801 10.992 103.865 10.992C103.929 10.928 103.993 10.864 104.057 10.8C104.377 10.736 104.537 10.512 104.537 10.128C104.537 10 104.665 9.936 104.921 9.936H105.401C105.465 9.936 105.497 9.936 105.497 9.936C105.561 9.872 105.625 9.84 105.689 9.84C105.817 9.776 105.913 9.712 105.977 9.648C106.105 9.52 106.201 9.456 106.265 9.456C106.393 9.456 106.521 9.488 106.649 9.552C106.777 9.552 106.905 9.584 107.033 9.648C107.161 9.648 107.257 9.616 107.321 9.552C107.641 9.488 107.961 9.52 108.281 9.648C108.665 9.712 108.985 9.808 109.241 9.936C109.625 10 109.913 10.256 110.105 10.704C110.297 11.28 110.457 11.856 110.585 12.432C110.777 12.944 110.905 13.488 110.969 14.064V14.832C111.097 15.28 111.161 15.76 111.161 16.272C111.161 16.72 111.161 17.2 111.161 17.712C111.161 18.16 111.161 18.608 111.161 19.056C111.225 19.44 111.289 19.824 111.353 20.208C111.353 20.4 111.353 20.592 111.353 20.784C111.353 20.976 111.385 21.168 111.449 21.36C111.449 21.744 111.449 22.128 111.449 22.512C111.513 22.896 111.577 23.312 111.641 23.76C111.705 24.464 111.769 25.2 111.833 25.968C111.897 26.736 111.929 27.504 111.929 28.272C111.929 28.592 111.929 28.944 111.929 29.328C111.929 29.648 111.961 29.968 112.025 30.288C112.089 30.48 112.121 30.672 112.121 30.864C112.121 31.056 112.121 31.248 112.121 31.44V33.36C112.121 33.744 112.153 34.064 112.217 34.32C112.345 34.768 112.377 35.216 112.313 35.664C112.313 36.048 112.345 36.464 112.409 36.912L112.697 41.328C112.761 41.968 112.793 42.64 112.793 43.344C112.857 43.984 112.889 44.656 112.889 45.36C112.889 45.616 112.889 45.904 112.889 46.224C112.889 46.48 112.921 46.736 112.985 46.992C113.049 47.184 113.081 47.376 113.081 47.568C113.081 47.76 113.081 47.952 113.081 48.144C113.145 48.208 113.145 48.336 113.081 48.528C113.081 48.656 113.113 48.784 113.177 48.912C113.305 49.36 113.369 49.808 113.369 50.256C113.369 50.704 113.369 51.184 113.369 51.696C113.369 51.952 113.369 52.24 113.369 52.56C113.433 52.816 113.465 53.104 113.465 53.424C113.529 53.744 113.561 54.096 113.561 54.48C113.561 54.864 113.561 55.216 113.561 55.536C113.625 55.856 113.657 56.208 113.657 56.592C113.657 56.912 113.689 57.232 113.753 57.552C113.817 57.68 113.849 57.808 113.849 57.936C113.849 58.64 113.913 59.344 114.041 60.048C114.169 60.752 114.297 61.456 114.425 62.16C114.489 62.352 114.521 62.576 114.521 62.832C114.521 63.024 114.521 63.216 114.521 63.408C114.521 63.6 114.457 63.76 114.329 63.888C114.073 64.08 113.881 64.464 113.753 65.04C113.753 65.232 113.657 65.392 113.465 65.52C113.017 65.712 112.633 65.968 112.313 66.288C111.801 66.736 111.193 66.96 110.489 66.96ZM136.26 69.744C134.852 70 133.604 69.552 132.516 68.4C132.324 68.208 132.132 67.984 131.94 67.728C131.812 67.472 131.652 67.216 131.46 66.96L131.172 66.192C130.66 64.848 130.212 63.504 129.828 62.16C129.508 60.752 129.252 59.344 129.06 57.936C128.868 56.976 128.772 56.08 128.772 55.248C128.708 54.416 128.612 53.584 128.484 52.752C128.42 51.92 128.388 51.088 128.388 50.256C128.388 49.872 128.388 49.488 128.388 49.104C128.388 48.656 128.324 48.208 128.196 47.76V47.568C128.132 46.864 128.068 46.16 128.004 45.456C128.004 44.688 127.94 43.952 127.812 43.248L127.523 38.832C127.46 38.192 127.396 37.584 127.332 37.008C127.268 36.432 127.172 35.824 127.044 35.184C127.044 34.928 127.012 34.704 126.948 34.512C126.948 34.256 126.948 34 126.948 33.744C126.948 33.232 126.948 32.72 126.948 32.208C126.948 31.696 126.916 31.216 126.852 30.768C126.788 30.512 126.756 30.16 126.756 29.712V26.64C126.82 25.744 126.788 24.848 126.66 23.952C126.532 23.056 126.404 22.192 126.276 21.36L125.412 16.176C125.348 16.048 125.316 15.888 125.316 15.696C125.316 15.504 125.316 15.344 125.316 15.216C125.316 15.088 125.316 14.928 125.316 14.736C125.316 14.544 125.284 14.384 125.22 14.256C125.028 13.552 124.996 12.912 125.124 12.336C125.252 11.696 125.412 11.056 125.604 10.416C125.668 10.352 125.764 10.192 125.892 9.936C126.212 9.616 126.5 9.328 126.756 9.07199C127.012 8.752 127.332 8.496 127.716 8.304C128.1 8.176 128.388 7.888 128.58 7.44L128.868 6.768C129.508 5.616 130.5 4.816 131.844 4.368C131.908 4.304 131.972 4.272 132.036 4.272C132.164 4.272 132.26 4.24 132.324 4.17599C133.156 3.792 134.02 3.76 134.916 4.08C135.236 4.144 135.556 4.24 135.876 4.368C136.196 4.432 136.484 4.528 136.74 4.65599C137.188 4.848 137.604 5.072 137.988 5.328C138.372 5.52 138.788 5.712 139.236 5.904C140.388 6.48 141.54 7.056 142.692 7.632C143.844 8.144 144.996 8.656 146.148 9.168L148.644 10.32C149.028 10.512 149.412 10.704 149.796 10.896C150.18 11.024 150.564 11.184 150.948 11.376L151.716 11.664C152.1 11.92 152.484 12.176 152.868 12.432C153.252 12.624 153.668 12.848 154.116 13.104C154.756 13.424 155.364 13.84 155.94 14.352C156.516 14.864 157.028 15.376 157.476 15.888C157.86 16.272 158.084 16.624 158.148 16.944C158.34 17.456 158.532 18 158.724 18.576C158.916 19.088 159.044 19.6 159.108 20.112C159.236 20.368 159.236 20.656 159.108 20.976C158.916 21.424 158.724 21.904 158.532 22.416C158.404 22.864 158.276 23.344 158.148 23.856C157.7 25.072 156.996 26.16 156.036 27.12C155.204 27.952 154.404 28.624 153.636 29.136C153.316 29.328 152.996 29.552 152.676 29.808C152.356 30 152.036 30.192 151.716 30.384C151.012 30.832 150.276 31.248 149.508 31.632C148.74 32.016 147.94 32.336 147.108 32.592C146.916 32.592 146.756 32.656 146.628 32.784C145.988 33.04 145.38 33.296 144.804 33.552C144.228 33.808 143.652 34.096 143.076 34.416C142.5 34.736 142.116 35.184 141.924 35.76C141.924 35.824 141.892 35.888 141.828 35.952C141.828 35.952 141.828 36.016 141.828 36.144C141.764 36.656 141.54 37.104 141.156 37.488C140.836 37.872 140.516 38.288 140.196 38.736C140.196 38.8 140.164 38.832 140.1 38.832C140.036 38.832 139.972 38.864 139.908 38.928L138.756 39.504C138.436 39.632 138.276 39.92 138.276 40.368C138.276 40.624 138.276 40.912 138.276 41.232C138.276 41.488 138.308 41.744 138.372 42L138.756 44.112C138.756 44.368 138.756 44.624 138.756 44.88C138.82 45.072 138.82 45.328 138.756 45.648C138.756 46.16 138.756 46.704 138.756 47.28C138.82 47.856 138.884 48.4 138.948 48.912C139.012 49.168 139.044 49.424 139.044 49.68C139.044 49.872 139.044 50.096 139.044 50.352C139.044 50.672 139.044 51.024 139.044 51.408C139.108 51.728 139.172 52.048 139.236 52.368C139.236 52.432 139.236 52.528 139.236 52.656C139.3 52.72 139.332 52.816 139.332 52.944C139.268 53.712 139.268 54.512 139.332 55.344C139.46 56.112 139.556 56.88 139.62 57.648V58.032C139.556 58.544 139.524 59.088 139.524 59.664C139.588 60.176 139.62 60.72 139.62 61.296C139.62 62.128 139.748 62.832 140.004 63.408C140.196 63.792 140.26 64.176 140.196 64.56C140.132 64.944 140.036 65.328 139.908 65.712C139.844 65.904 139.748 66.096 139.62 66.288C139.556 66.544 139.46 66.768 139.332 66.96C138.82 67.984 138.148 68.784 137.316 69.36C136.932 69.616 136.58 69.744 136.26 69.744ZM137.412 27.792L137.988 27.504C139.076 26.8 140.164 26.16 141.252 25.584C142.404 25.008 143.556 24.432 144.708 23.856L146.531 22.896C146.916 22.64 147.268 22.416 147.588 22.224C147.972 22.032 148.324 21.808 148.644 21.552C148.708 21.488 148.804 21.328 148.932 21.072C148.996 21.072 149.028 21.04 149.028 20.976C149.028 20.912 148.996 20.88 148.932 20.88C148.74 20.688 148.644 20.592 148.644 20.592C148.324 20.4 147.972 20.208 147.588 20.016C147.204 19.76 146.82 19.536 146.436 19.344C146.116 19.216 145.764 19.056 145.38 18.864C144.996 18.672 144.612 18.48 144.228 18.288C142.692 17.584 141.188 16.88 139.716 16.176C139.268 15.984 138.82 15.824 138.372 15.696C137.988 15.504 137.572 15.312 137.124 15.12C137.124 15.12 136.996 15.056 136.74 14.928C136.484 14.928 136.356 15.024 136.356 15.216C136.292 15.472 136.228 15.728 136.164 15.984C136.1 16.176 136.036 16.4 135.972 16.656V19.824C135.972 20.4 135.972 20.976 135.972 21.552C136.036 22.128 136.132 22.672 136.26 23.184C136.26 23.632 136.292 24.112 136.356 24.624C136.42 25.072 136.484 25.552 136.548 26.064L136.836 27.6C136.964 27.856 137.156 27.92 137.412 27.792ZM179.01 69.744C177.602 70 176.354 69.552 175.266 68.4C175.074 68.208 174.882 67.984 174.69 67.728C174.562 67.472 174.402 67.216 174.21 66.96L173.922 66.192C173.41 64.848 172.962 63.504 172.578 62.16C172.258 60.752 172.002 59.344 171.81 57.936C171.618 56.976 171.522 56.08 171.522 55.248C171.458 54.416 171.362 53.584 171.234 52.752C171.17 51.92 171.138 51.088 171.138 50.256C171.138 49.872 171.138 49.488 171.138 49.104C171.138 48.656 171.074 48.208 170.946 47.76V47.568C170.882 46.864 170.818 46.16 170.754 45.456C170.754 44.688 170.69 43.952 170.562 43.248L170.273 38.832C170.21 38.192 170.146 37.584 170.082 37.008C170.018 36.432 169.922 35.824 169.794 35.184C169.794 34.928 169.762 34.704 169.698 34.512C169.698 34.256 169.698 34 169.698 33.744C169.698 33.232 169.698 32.72 169.698 32.208C169.698 31.696 169.666 31.216 169.602 30.768C169.538 30.512 169.506 30.16 169.506 29.712V26.64C169.57 25.744 169.538 24.848 169.41 23.952C169.282 23.056 169.154 22.192 169.026 21.36L168.162 16.176C168.098 16.048 168.066 15.888 168.066 15.696C168.066 15.504 168.066 15.344 168.066 15.216C168.066 15.088 168.066 14.928 168.066 14.736C168.066 14.544 168.034 14.384 167.97 14.256C167.778 13.552 167.746 12.912 167.874 12.336C168.002 11.696 168.162 11.056 168.354 10.416C168.418 10.352 168.514 10.192 168.642 9.936C168.962 9.616 169.25 9.328 169.506 9.07199C169.762 8.752 170.082 8.496 170.466 8.304C170.85 8.176 171.138 7.888 171.33 7.44L171.618 6.768C172.258 5.616 173.25 4.816 174.594 4.368C174.658 4.304 174.722 4.272 174.786 4.272C174.914 4.272 175.01 4.24 175.074 4.17599C175.906 3.792 176.77 3.76 177.666 4.08C177.986 4.144 178.306 4.24 178.626 4.368C178.946 4.432 179.234 4.528 179.49 4.65599C179.938 4.848 180.354 5.072 180.738 5.328C181.122 5.52 181.538 5.712 181.986 5.904C183.138 6.48 184.29 7.056 185.442 7.632C186.594 8.144 187.746 8.656 188.898 9.168L191.394 10.32C191.778 10.512 192.162 10.704 192.546 10.896C192.93 11.024 193.314 11.184 193.698 11.376L194.466 11.664C194.85 11.92 195.234 12.176 195.618 12.432C196.002 12.624 196.418 12.848 196.866 13.104C197.506 13.424 198.114 13.84 198.69 14.352C199.266 14.864 199.778 15.376 200.226 15.888C200.61 16.272 200.834 16.624 200.898 16.944C201.09 17.456 201.282 18 201.474 18.576C201.666 19.088 201.794 19.6 201.858 20.112C201.986 20.368 201.986 20.656 201.858 20.976C201.666 21.424 201.474 21.904 201.282 22.416C201.154 22.864 201.026 23.344 200.898 23.856C200.45 25.072 199.746 26.16 198.786 27.12C197.954 27.952 197.154 28.624 196.386 29.136C196.066 29.328 195.746 29.552 195.426 29.808C195.106 30 194.786 30.192 194.466 30.384C193.762 30.832 193.026 31.248 192.258 31.632C191.49 32.016 190.69 32.336 189.858 32.592C189.666 32.592 189.506 32.656 189.378 32.784C188.738 33.04 188.13 33.296 187.554 33.552C186.978 33.808 186.402 34.096 185.826 34.416C185.25 34.736 184.866 35.184 184.674 35.76C184.674 35.824 184.642 35.888 184.578 35.952C184.578 35.952 184.578 36.016 184.578 36.144C184.514 36.656 184.29 37.104 183.906 37.488C183.586 37.872 183.266 38.288 182.946 38.736C182.946 38.8 182.914 38.832 182.85 38.832C182.786 38.832 182.722 38.864 182.658 38.928L181.506 39.504C181.186 39.632 181.026 39.92 181.026 40.368C181.026 40.624 181.026 40.912 181.026 41.232C181.026 41.488 181.058 41.744 181.122 42L181.506 44.112C181.506 44.368 181.506 44.624 181.506 44.88C181.57 45.072 181.57 45.328 181.506 45.648C181.506 46.16 181.506 46.704 181.506 47.28C181.57 47.856 181.634 48.4 181.698 48.912C181.762 49.168 181.794 49.424 181.794 49.68C181.794 49.872 181.794 50.096 181.794 50.352C181.794 50.672 181.794 51.024 181.794 51.408C181.858 51.728 181.922 52.048 181.986 52.368C181.986 52.432 181.986 52.528 181.986 52.656C182.05 52.72 182.082 52.816 182.082 52.944C182.018 53.712 182.018 54.512 182.082 55.344C182.21 56.112 182.306 56.88 182.37 57.648V58.032C182.306 58.544 182.274 59.088 182.274 59.664C182.338 60.176 182.37 60.72 182.37 61.296C182.37 62.128 182.498 62.832 182.754 63.408C182.946 63.792 183.01 64.176 182.946 64.56C182.882 64.944 182.786 65.328 182.658 65.712C182.594 65.904 182.498 66.096 182.37 66.288C182.306 66.544 182.21 66.768 182.082 66.96C181.57 67.984 180.898 68.784 180.066 69.36C179.682 69.616 179.33 69.744 179.01 69.744ZM180.162 27.792L180.738 27.504C181.826 26.8 182.914 26.16 184.002 25.584C185.154 25.008 186.306 24.432 187.458 23.856L189.281 22.896C189.666 22.64 190.018 22.416 190.338 22.224C190.722 22.032 191.074 21.808 191.394 21.552C191.458 21.488 191.554 21.328 191.682 21.072C191.746 21.072 191.778 21.04 191.778 20.976C191.778 20.912 191.746 20.88 191.682 20.88C191.49 20.688 191.394 20.592 191.394 20.592C191.074 20.4 190.722 20.208 190.338 20.016C189.954 19.76 189.57 19.536 189.186 19.344C188.866 19.216 188.514 19.056 188.13 18.864C187.746 18.672 187.362 18.48 186.978 18.288C185.442 17.584 183.938 16.88 182.466 16.176C182.018 15.984 181.57 15.824 181.122 15.696C180.738 15.504 180.322 15.312 179.874 15.12C179.874 15.12 179.746 15.056 179.49 14.928C179.234 14.928 179.106 15.024 179.106 15.216C179.042 15.472 178.978 15.728 178.914 15.984C178.85 16.176 178.786 16.4 178.722 16.656V19.824C178.722 20.4 178.722 20.976 178.722 21.552C178.786 22.128 178.882 22.672 179.01 23.184C179.01 23.632 179.042 24.112 179.106 24.624C179.17 25.072 179.234 25.552 179.298 26.064L179.586 27.6C179.714 27.856 179.906 27.92 180.162 27.792ZM218.301 66.96C217.917 66.96 217.661 66.928 217.533 66.864C217.277 66.736 217.053 66.64 216.861 66.576C216.669 66.512 216.477 66.448 216.285 66.384C216.093 66.256 215.901 66.128 215.709 66C215.581 65.808 215.453 65.616 215.325 65.424C215.197 65.296 215.069 65.232 214.941 65.232C214.557 65.232 214.365 65.04 214.365 64.656C214.301 64.272 214.237 63.888 214.173 63.504C214.109 63.12 214.045 62.736 213.981 62.352C213.917 61.776 213.853 61.2 213.789 60.624C213.789 60.048 213.725 59.504 213.597 58.992V58.128C213.597 57.872 213.565 57.648 213.501 57.456C213.501 57.264 213.501 57.04 213.501 56.784C213.373 56.464 213.373 56.208 213.501 56.016C213.629 54.864 213.629 53.712 213.501 52.56C213.437 52.24 213.405 51.92 213.405 51.6C213.405 51.28 213.373 50.96 213.309 50.64C213.309 50 213.309 49.36 213.309 48.72C213.309 48.016 213.245 47.344 213.117 46.704V45.168C213.117 44.656 213.085 44.176 213.021 43.728C213.021 43.28 212.989 42.832 212.925 42.384C212.861 41.808 212.797 41.232 212.733 40.656C212.733 40.08 212.701 39.504 212.637 38.928C212.573 38.8 212.541 38.576 212.541 38.256C212.477 37.936 212.413 37.616 212.349 37.296C212.349 36.912 212.349 36.56 212.349 36.24L212.061 31.44C211.997 30.928 211.933 30.448 211.869 30C211.869 29.488 211.869 29.008 211.869 28.56C211.805 27.792 211.741 27.024 211.677 26.256C211.613 25.488 211.549 24.752 211.485 24.048C211.485 23.92 211.453 23.792 211.389 23.664C211.389 23.536 211.389 23.44 211.389 23.376C211.389 22.608 211.357 21.84 211.293 21.072C211.229 20.304 211.165 19.504 211.101 18.672L210.813 15.984C210.621 14.96 210.589 13.84 210.717 12.624C210.717 12.048 210.941 11.568 211.389 11.184C211.517 11.056 211.613 10.992 211.677 10.992C211.741 10.928 211.805 10.864 211.869 10.8C212.189 10.736 212.349 10.512 212.349 10.128C212.349 10 212.477 9.936 212.733 9.936H213.213C213.277 9.936 213.309 9.936 213.309 9.936C213.373 9.872 213.437 9.84 213.501 9.84C213.629 9.776 213.725 9.712 213.789 9.648C213.917 9.52 214.013 9.456 214.077 9.456C214.205 9.456 214.333 9.488 214.461 9.552C214.589 9.552 214.717 9.584 214.845 9.648C214.973 9.648 215.069 9.616 215.133 9.552C215.453 9.488 215.773 9.52 216.093 9.648C216.477 9.712 216.797 9.808 217.053 9.936C217.437 10 217.725 10.256 217.917 10.704C218.109 11.28 218.269 11.856 218.397 12.432C218.589 12.944 218.717 13.488 218.781 14.064V14.832C218.909 15.28 218.973 15.76 218.973 16.272C218.973 16.72 218.973 17.2 218.973 17.712C218.973 18.16 218.973 18.608 218.973 19.056C219.037 19.44 219.101 19.824 219.165 20.208C219.165 20.4 219.165 20.592 219.165 20.784C219.165 20.976 219.197 21.168 219.261 21.36C219.261 21.744 219.261 22.128 219.261 22.512C219.325 22.896 219.389 23.312 219.453 23.76C219.517 24.464 219.581 25.2 219.645 25.968C219.709 26.736 219.741 27.504 219.741 28.272C219.741 28.592 219.741 28.944 219.741 29.328C219.741 29.648 219.773 29.968 219.837 30.288C219.901 30.48 219.933 30.672 219.933 30.864C219.933 31.056 219.933 31.248 219.933 31.44V33.36C219.933 33.744 219.965 34.064 220.029 34.32C220.157 34.768 220.189 35.216 220.125 35.664C220.125 36.048 220.157 36.464 220.221 36.912L220.509 41.328C220.573 41.968 220.605 42.64 220.605 43.344C220.669 43.984 220.701 44.656 220.701 45.36C220.701 45.616 220.701 45.904 220.701 46.224C220.701 46.48 220.733 46.736 220.797 46.992C220.861 47.184 220.893 47.376 220.893 47.568C220.893 47.76 220.893 47.952 220.893 48.144C220.957 48.208 220.957 48.336 220.893 48.528C220.893 48.656 220.925 48.784 220.989 48.912C221.117 49.36 221.181 49.808 221.181 50.256C221.181 50.704 221.181 51.184 221.181 51.696C221.181 51.952 221.181 52.24 221.181 52.56C221.245 52.816 221.277 53.104 221.277 53.424C221.341 53.744 221.373 54.096 221.373 54.48C221.373 54.864 221.373 55.216 221.373 55.536C221.437 55.856 221.469 56.208 221.469 56.592C221.469 56.912 221.501 57.232 221.565 57.552C221.629 57.68 221.661 57.808 221.661 57.936C221.661 58.64 221.725 59.344 221.853 60.048C221.981 60.752 222.109 61.456 222.237 62.16C222.301 62.352 222.333 62.576 222.333 62.832C222.333 63.024 222.333 63.216 222.333 63.408C222.333 63.6 222.269 63.76 222.141 63.888C221.885 64.08 221.693 64.464 221.565 65.04C221.565 65.232 221.469 65.392 221.277 65.52C220.829 65.712 220.445 65.968 220.125 66.288C219.613 66.736 219.005 66.96 218.301 66.96ZM243.789 66.672C243.405 66.672 243.149 66.64 243.021 66.576C242.701 66.448 242.381 66.384 242.061 66.384C241.805 66.448 241.517 66.48 241.197 66.48C241.133 66.48 241.069 66.48 241.005 66.48C240.941 66.544 240.877 66.576 240.812 66.576C240.365 66.64 239.917 66.672 239.469 66.672C239.085 66.672 238.701 66.608 238.317 66.48C238.253 66.416 238.189 66.384 238.125 66.384C237.677 66.448 237.293 66.32 236.973 66C236.653 65.68 236.333 65.392 236.013 65.136C235.693 64.816 235.533 64.464 235.533 64.08L235.245 63.312C235.053 62.864 234.989 62.448 235.053 62.064C235.117 61.936 235.117 61.808 235.053 61.68C235.053 61.552 235.053 61.424 235.053 61.296C234.989 61.168 234.957 61.04 234.957 60.912C234.957 60.72 234.925 60.56 234.861 60.432C234.733 59.856 234.637 59.28 234.573 58.704C234.573 58.064 234.605 57.456 234.669 56.88C234.733 56.496 234.957 55.856 235.341 54.96C235.725 54 235.949 53.424 236.013 53.232C236.205 52.912 236.301 52.656 236.301 52.464C236.237 51.76 236.205 51.056 236.205 50.352C236.269 49.584 236.301 48.848 236.301 48.144C236.301 47.696 236.397 47.344 236.589 47.088C236.845 46.64 236.877 46.16 236.685 45.648L236.397 44.592C236.013 43.888 236.045 43.28 236.493 42.768C236.493 42.704 236.493 42.672 236.493 42.672C236.557 42.608 236.589 42.544 236.589 42.48C236.717 42.352 236.749 42.192 236.685 42C236.621 41.744 236.589 41.552 236.589 41.424C236.589 41.168 236.621 40.912 236.685 40.656C236.813 40.336 236.845 40.048 236.781 39.792C236.781 39.792 236.717 39.728 236.589 39.6C236.525 39.472 236.493 39.216 236.493 38.832C236.557 38.448 236.589 38.224 236.589 38.16V35.472C236.653 35.152 236.685 34.864 236.685 34.608C236.685 34.288 236.717 33.968 236.781 33.648C236.845 33.264 236.845 32.88 236.781 32.496C236.781 32.048 236.781 31.6 236.781 31.152C236.717 30.832 236.653 30.48 236.589 30.096C236.589 29.712 236.589 29.328 236.589 28.944C236.525 28.816 236.493 28.656 236.493 28.464C236.493 28.272 236.493 28.112 236.493 27.984C236.429 27.664 236.365 27.344 236.301 27.024C236.301 26.704 236.301 26.384 236.301 26.064C236.301 25.936 236.173 25.52 235.917 24.816C235.661 24.048 235.565 23.408 235.629 22.896C235.693 22.768 235.725 22.608 235.725 22.416C235.725 22.224 235.661 22.064 235.533 21.936C235.405 21.872 235.341 21.744 235.341 21.552V21.264C235.533 20.496 235.437 19.728 235.053 18.96C234.797 18.576 234.701 18.192 234.765 17.808C234.765 17.296 234.541 16.912 234.093 16.656C233.773 16.336 233.485 15.952 233.229 15.504C232.973 15.056 232.813 14.608 232.749 14.16C232.685 13.84 232.653 13.52 232.653 13.2C232.653 12.88 232.653 12.592 232.653 12.336C232.653 12.08 232.685 11.92 232.749 11.856C233.005 11.6 233.133 11.312 233.133 10.992C233.133 10.608 233.165 10.32 233.229 10.128C233.293 10.064 233.357 10.032 233.421 10.032C233.485 10.032 233.549 10 233.613 9.936C233.869 9.872 233.997 9.648 233.997 9.264C233.869 9.008 233.805 8.784 233.805 8.592C233.741 8.33599 233.837 8.112 234.093 7.92C234.221 7.664 234.381 7.6 234.573 7.72799C235.021 7.92 235.533 7.856 236.109 7.536C236.365 7.408 236.525 7.344 236.589 7.344C236.781 7.344 236.877 7.344 236.877 7.344C236.941 7.28 237.133 7.248 237.453 7.248C237.837 7.312 238.189 7.184 238.509 6.86399C238.957 6.416 239.501 6.192 240.141 6.192H246.093C247.565 6.256 249.037 6.256 250.509 6.192C251.981 6.128 253.421 6.096 254.829 6.096C255.149 6.096 255.405 6.096 255.597 6.096C255.853 6.032 256.109 5.968 256.365 5.904C256.749 5.712 257.197 5.616 257.709 5.616H259.917C260.429 5.616 260.877 5.616 261.261 5.616C261.709 5.552 262.157 5.488 262.605 5.424C262.861 5.36 263.085 5.328 263.277 5.328C263.533 5.328 263.789 5.328 264.045 5.328C264.301 5.328 264.557 5.328 264.813 5.328C265.069 5.328 265.325 5.296 265.581 5.232C266.093 5.168 266.637 5.136 267.213 5.136C267.789 5.072 268.333 5.04 268.845 5.04C269.101 5.04 269.325 5.04 269.517 5.04C269.773 4.976 270.029 4.912 270.285 4.848C270.797 4.72 271.277 4.65599 271.725 4.65599C272.237 4.592 272.717 4.528 273.165 4.464C273.677 4.4 274.157 4.336 274.605 4.272C275.117 4.208 275.597 4.144 276.045 4.08C276.621 4.08 277.037 4.144 277.292 4.272C277.677 4.528 278.029 4.752 278.349 4.944C278.733 5.136 279.085 5.392 279.405 5.712C279.661 5.968 279.821 6.192 279.885 6.384C279.949 6.64 280.013 6.896 280.077 7.152C280.141 7.408 280.205 7.696 280.269 8.016V8.688C280.205 9.008 280.141 9.36 280.077 9.744C280.077 10.064 280.045 10.416 279.981 10.8C279.853 11.056 279.693 11.28 279.5 11.472L277.773 13.2C277.133 13.392 276.493 13.52 275.853 13.584C275.277 13.648 274.669 13.648 274.029 13.584H273.357C273.037 13.648 272.717 13.68 272.397 13.68C272.077 13.68 271.757 13.648 271.437 13.584C271.053 13.52 270.669 13.52 270.285 13.584C269.901 13.584 269.517 13.584 269.133 13.584C268.877 13.584 268.621 13.616 268.365 13.68C268.173 13.68 267.949 13.648 267.693 13.584C267.373 13.52 267.053 13.52 266.733 13.584C266.477 13.584 266.189 13.616 265.869 13.68C265.613 13.68 265.325 13.712 265.005 13.776C264.749 13.776 264.461 13.776 264.141 13.776C263.309 13.904 262.413 13.968 261.453 13.968C260.557 13.968 259.661 14.032 258.765 14.16C258.189 14.096 257.645 14.128 257.133 14.256C256.621 14.32 256.077 14.384 255.501 14.448C254.989 14.512 254.445 14.544 253.869 14.544C253.293 14.544 252.749 14.608 252.237 14.736C251.597 14.736 250.957 14.832 250.317 15.024C249.741 15.152 249.133 15.248 248.493 15.312L247.821 15.408C247.373 15.408 246.957 15.472 246.573 15.6C246.189 15.664 245.773 15.76 245.325 15.888C245.069 15.952 244.813 16.016 244.557 16.08C244.301 16.08 244.013 16.112 243.693 16.176C243.501 16.176 243.277 16.24 243.021 16.368C242.829 16.432 242.733 16.624 242.733 16.944L243.021 17.808C243.085 17.936 243.053 18.256 242.924 18.768C242.861 19.28 242.797 19.664 242.733 19.92C242.733 20.112 242.765 20.304 242.829 20.496C242.893 20.688 242.957 20.88 243.021 21.072C243.213 21.584 243.309 22.16 243.309 22.8C243.309 23.376 243.373 23.92 243.501 24.432C243.565 24.688 243.597 24.976 243.597 25.296C243.597 25.552 243.629 25.84 243.693 26.16C243.693 26.288 243.693 26.448 243.693 26.64C243.757 26.768 243.789 26.928 243.789 27.12C243.789 27.312 243.757 27.44 243.693 27.504C243.501 27.76 243.405 28.048 243.405 28.368C243.405 28.688 243.405 29.008 243.405 29.328C243.725 29.968 243.885 30.608 243.885 31.248C243.885 31.888 243.885 32.528 243.885 33.168C243.885 33.36 244.045 33.424 244.365 33.36H244.461C244.589 33.104 244.717 32.912 244.845 32.784C245.037 32.784 245.261 32.72 245.517 32.592C245.709 32.464 245.965 32.4 246.285 32.4C246.797 32.464 247.277 32.464 247.725 32.4C248.173 32.272 248.621 32.144 249.069 32.016C252.077 31.248 254.893 30.256 257.517 29.04C258.221 28.72 258.957 28.464 259.725 28.272C260.493 28.016 261.261 27.856 262.029 27.792H262.317C262.893 27.728 263.469 27.664 264.045 27.6C264.621 27.536 265.197 27.504 265.773 27.504C266.541 27.44 267.277 27.344 267.981 27.216C268.749 27.088 269.517 26.992 270.285 26.928C270.733 26.8 271.149 26.704 271.533 26.64C271.917 26.512 272.333 26.352 272.781 26.16C273.613 25.84 274.381 25.68 275.085 25.68C275.597 25.744 276.077 25.872 276.525 26.064C276.973 26.192 277.421 26.384 277.869 26.64C278.829 27.28 279.309 28.24 279.309 29.52C279.309 30.032 279.245 30.544 279.117 31.056C279.053 31.568 279.021 32.08 279.021 32.592C279.021 32.72 278.957 32.848 278.829 32.976L278.541 33.456C278.477 33.712 278.413 33.968 278.349 34.224C278.285 34.48 278.125 34.672 277.869 34.8C277.485 35.12 277.069 35.472 276.621 35.856C276.237 36.176 275.789 36.4 275.277 36.528C275.021 36.592 274.765 36.656 274.509 36.72C274.317 36.784 274.093 36.816 273.837 36.816C272.813 36.816 271.757 36.88 270.669 37.008C269.645 37.136 268.589 37.264 267.501 37.392C266.669 37.456 265.837 37.552 265.005 37.68C264.237 37.808 263.437 37.872 262.605 37.872C261.837 37.872 260.973 38.032 260.013 38.352C259.373 38.48 258.701 38.608 257.997 38.736C257.293 38.864 256.589 38.96 255.885 39.024C255.373 39.088 254.829 39.184 254.253 39.312C253.741 39.376 253.229 39.44 252.717 39.504L251.085 39.792C250.957 39.856 250.765 39.888 250.509 39.888C250.061 40.016 249.613 40.112 249.165 40.176C248.717 40.24 248.269 40.336 247.821 40.464C247.373 40.528 246.925 40.624 246.477 40.752C246.093 40.88 245.677 41.008 245.229 41.136C244.909 41.2 244.653 41.328 244.461 41.52C244.269 41.648 244.109 41.84 243.981 42.096C243.917 42.288 243.917 42.48 243.981 42.672C244.045 42.928 244.013 43.184 243.885 43.44C243.949 44.08 243.981 44.72 243.981 45.36C244.045 46 244.045 46.64 243.981 47.28C244.109 47.792 244.141 48.304 244.077 48.816C244.077 49.328 244.045 49.84 243.981 50.352C243.853 51.12 243.885 51.76 244.077 52.272C244.269 53.104 244.205 53.968 243.885 54.864C243.757 55.248 243.757 55.504 243.885 55.632C244.013 55.824 244.013 56.048 243.885 56.304V56.88C243.821 57.392 244.045 57.648 244.557 57.648H244.749C245.197 57.648 245.645 57.808 246.093 58.128C246.413 58.448 246.797 58.544 247.245 58.416L249.933 58.128C250.317 58.064 250.701 58.032 251.085 58.032C251.469 57.968 251.853 57.936 252.237 57.936C252.365 57.872 252.557 57.904 252.812 58.032C253.133 58.224 253.421 58.256 253.677 58.128C253.805 58 253.965 57.904 254.156 57.84C254.413 57.776 254.605 57.68 254.733 57.552C255.117 57.168 255.597 57.04 256.173 57.168C256.685 57.296 257.101 57.264 257.421 57.072C257.997 56.88 258.541 56.816 259.053 56.88C259.373 56.944 259.693 56.912 260.013 56.784C260.333 56.656 260.653 56.592 260.973 56.592C261.101 56.592 261.197 56.624 261.261 56.688C261.325 56.688 261.389 56.656 261.453 56.592C261.581 56.592 261.709 56.56 261.837 56.496C261.965 56.432 262.061 56.4 262.125 56.4C262.573 56.208 262.989 56.144 263.373 56.208C263.693 56.208 263.853 56.208 263.853 56.208C264.109 56.144 264.333 56.144 264.525 56.208C264.781 56.272 265.005 56.368 265.197 56.496C265.517 56.56 265.773 56.656 265.965 56.784C266.221 56.912 266.477 57.008 266.733 57.072C266.861 57.072 266.957 57.104 267.021 57.168C267.341 57.424 267.725 57.648 268.173 57.84C268.685 58.032 268.973 58.256 269.037 58.512C269.165 58.896 269.229 59.28 269.229 59.664C269.229 59.984 269.261 60.336 269.325 60.72C269.325 60.912 269.293 61.104 269.229 61.296C269.229 61.488 269.197 61.68 269.133 61.872C269.005 62.128 268.845 62.416 268.653 62.736C268.525 63.056 268.333 63.344 268.077 63.6C267.949 63.728 267.821 63.856 267.693 63.984C267.629 64.112 267.533 64.24 267.405 64.368C267.149 64.624 266.861 64.848 266.541 65.04C266.221 65.232 265.869 65.328 265.485 65.328C265.229 65.328 265.037 65.36 264.909 65.424C264.653 65.552 264.397 65.616 264.141 65.616C263.885 65.616 263.597 65.616 263.277 65.616C262.829 65.68 262.381 65.744 261.933 65.808C261.549 65.808 261.133 65.776 260.685 65.712C260.429 65.648 260.205 65.648 260.013 65.712C259.373 65.904 258.733 65.936 258.093 65.808C257.453 65.808 256.813 65.84 256.173 65.904C255.597 65.904 255.021 65.904 254.445 65.904H253.197C253.005 65.904 252.845 65.936 252.717 66C252.461 66.128 252.141 66.192 251.757 66.192C251.437 66.192 251.117 66.16 250.797 66.096H249.837C249.773 66.096 249.677 66.096 249.549 66.096C249.421 66.16 249.293 66.16 249.165 66.096C248.973 66.032 248.781 66 248.589 66C248.461 66.064 248.301 66.128 248.109 66.192C247.981 66.192 247.853 66.192 247.725 66.192C247.661 66.256 247.565 66.288 247.437 66.288C246.797 66.224 246.189 66.224 245.613 66.288C245.037 66.416 244.429 66.544 243.789 66.672ZM334.371 67.92C333.155 68.048 332.163 67.664 331.395 66.768C331.011 66.384 330.659 65.968 330.339 65.52C330.019 65.072 329.763 64.592 329.571 64.08C329.251 63.184 328.963 62.288 328.707 61.392C328.451 60.432 328.227 59.504 328.035 58.608C327.843 57.904 327.747 57.232 327.747 56.592C327.683 55.888 327.587 55.216 327.459 54.576C327.395 53.872 327.363 53.168 327.363 52.464C327.363 52.08 327.363 51.696 327.363 51.312C327.363 50.864 327.331 50.448 327.267 50.064C327.203 49.808 327.171 49.584 327.171 49.392C327.171 49.2 327.171 48.976 327.171 48.72C327.171 47.824 327.171 46.928 327.171 46.032C327.171 45.072 327.139 44.144 327.075 43.248C327.075 42.736 327.043 42.288 326.979 41.904C326.915 41.456 326.787 41.008 326.595 40.56C326.339 39.856 326.307 39.088 326.499 38.256C326.499 38.064 326.531 37.936 326.595 37.872C326.723 37.424 326.787 36.976 326.787 36.528C326.851 36.08 326.851 35.632 326.787 35.184C326.723 34.864 326.691 34.544 326.691 34.224C326.691 33.904 326.691 33.616 326.691 33.36C326.627 32.656 326.595 31.952 326.595 31.248C326.659 30.48 326.723 29.744 326.787 29.04C326.851 28.848 326.883 28.656 326.883 28.464C326.883 28.272 326.883 28.08 326.883 27.888C326.819 27.184 326.819 26.512 326.883 25.872C327.011 25.232 327.107 24.592 327.171 23.952C327.299 23.184 327.427 22.448 327.555 21.744C327.683 20.976 327.843 20.208 328.035 19.44C328.163 19.12 328.227 18.768 328.227 18.384C328.227 18 328.227 17.616 328.227 17.232C328.227 16.912 328.195 16.592 328.131 16.272C328.131 15.952 328.131 15.664 328.131 15.408C328.131 15.216 328.131 15.024 328.131 14.832C328.131 14.64 328.163 14.448 328.227 14.256C328.291 14.064 328.323 13.872 328.323 13.68C328.323 13.488 328.355 13.36 328.419 13.296C328.611 13.04 328.771 12.816 328.898 12.624C329.027 12.368 329.219 12.144 329.475 11.952C329.795 11.76 330.083 11.568 330.339 11.376C330.659 11.184 330.947 11.024 331.203 10.896C331.523 10.768 331.779 10.608 331.971 10.416C332.227 10.096 332.483 9.808 332.739 9.552C333.059 9.232 333.315 8.88 333.507 8.496C333.827 8.176 334.147 7.824 334.467 7.44C334.851 6.992 335.267 6.64 335.715 6.384C335.843 6.32 336.035 6.16 336.291 5.904C337.059 5.2 337.955 4.752 338.979 4.56C339.171 4.496 339.331 4.464 339.459 4.464C339.651 4.4 339.843 4.368 340.035 4.368L340.707 4.08C341.219 3.888 341.667 3.984 342.051 4.368C342.179 4.56 342.339 4.752 342.531 4.944C342.787 5.072 343.011 5.2 343.203 5.328C343.715 5.776 344.195 6.256 344.643 6.768C345.155 7.28 345.603 7.856 345.987 8.496C346.627 9.52 347.171 10.544 347.619 11.568C348.131 12.592 348.611 13.648 349.059 14.736L350.786 18.864C350.851 19.248 351.011 19.6 351.267 19.92C351.779 20.88 352.163 21.872 352.419 22.896C352.675 23.856 352.931 24.848 353.187 25.872C353.251 26 353.283 26.128 353.283 26.256C353.347 26.384 353.379 26.512 353.379 26.64C353.507 27.152 353.603 27.696 353.667 28.272C353.795 28.784 353.827 29.296 353.763 29.808C353.827 30.384 353.795 30.96 353.667 31.536C353.603 32.048 353.507 32.56 353.379 33.072C353.187 33.712 352.963 34.32 352.707 34.896C352.451 35.408 352.163 35.952 351.843 36.528C351.715 36.912 351.491 37.264 351.171 37.584C350.851 37.904 350.531 38.192 350.211 38.448C349.699 38.704 349.187 39.088 348.675 39.6C348.547 39.728 348.387 39.824 348.195 39.888C348.067 39.952 347.939 40.048 347.811 40.176C347.363 40.368 346.883 40.592 346.371 40.848C345.859 41.04 345.347 41.232 344.835 41.424C344.771 41.424 344.739 41.488 344.739 41.616C344.739 41.68 344.771 41.744 344.835 41.808L347.427 43.632C347.747 43.824 348.035 44.016 348.291 44.208C348.547 44.336 348.803 44.496 349.059 44.688L349.635 44.976C350.403 45.424 351.171 45.904 351.939 46.416C352.707 46.928 353.443 47.44 354.147 47.952C355.491 48.784 356.835 49.648 358.179 50.544C359.523 51.376 360.803 52.304 362.019 53.328C363.107 54.16 364.067 55.12 364.899 56.208C365.091 56.4 365.283 56.624 365.475 56.88C365.667 57.072 365.891 57.232 366.147 57.36L366.435 57.648C367.459 58.544 368.035 59.76 368.163 61.296C368.163 61.488 368.131 61.68 368.067 61.872C368.067 62.064 368.067 62.256 368.067 62.448C368.067 62.832 367.939 63.152 367.683 63.408C367.427 63.536 367.299 63.696 367.299 63.888C367.107 64.336 366.819 64.656 366.435 64.848C366.115 64.976 365.795 65.168 365.475 65.424C365.347 65.488 365.123 65.52 364.803 65.52C364.419 65.456 364.003 65.392 363.555 65.328C363.171 65.264 362.787 65.232 362.403 65.232C361.891 65.232 361.347 65.008 360.771 64.56C360.387 64.24 360.035 63.952 359.715 63.696C359.395 63.376 359.075 62.992 358.755 62.544C357.923 61.392 356.835 60.336 355.491 59.376C354.851 58.864 354.243 58.384 353.667 57.936C353.091 57.488 352.451 57.072 351.747 56.688C351.299 56.432 350.851 56.176 350.403 55.92C350.019 55.6 349.571 55.312 349.059 55.056C347.459 53.968 345.827 52.912 344.163 51.888C342.499 50.8 340.835 49.712 339.171 48.624C338.915 48.432 338.627 48.24 338.307 48.048C337.987 47.856 337.667 47.664 337.347 47.472C337.219 47.344 337.027 47.216 336.771 47.088C336.515 47.088 336.387 47.184 336.387 47.376C336.387 47.44 336.355 47.504 336.291 47.568C336.291 47.568 336.291 47.6 336.291 47.664C336.291 47.856 336.291 48.048 336.291 48.24C336.291 48.432 336.323 48.624 336.387 48.816C336.451 49.328 336.483 49.84 336.483 50.352C336.483 50.8 336.483 51.28 336.483 51.792C336.483 52.176 336.483 52.56 336.483 52.944C336.547 53.264 336.611 53.616 336.674 54C336.674 54.192 336.674 54.416 336.674 54.672C336.739 54.864 336.771 55.056 336.771 55.248C336.707 55.824 336.739 56.4 336.867 56.976C336.995 57.552 337.091 58.128 337.155 58.704L337.731 61.2C337.795 61.456 337.859 61.744 337.923 62.064C337.987 62.32 338.051 62.608 338.115 62.928C338.179 63.184 338.179 63.44 338.115 63.696C338.115 63.888 338.083 64.112 338.019 64.368C338.019 64.432 337.955 64.528 337.827 64.656C337.507 64.72 337.283 64.944 337.155 65.328C336.963 65.776 336.675 66.16 336.291 66.48C335.971 66.864 335.619 67.216 335.234 67.536C335.171 67.6 335.043 67.664 334.851 67.728C334.659 67.792 334.499 67.856 334.371 67.92ZM338.115 34.32H338.307C339.011 34.192 339.715 34.064 340.419 33.936C341.187 33.744 341.923 33.52 342.627 33.264C343.331 33.072 343.939 32.72 344.451 32.208C344.899 31.76 345.123 31.248 345.123 30.672C345.187 30.224 345.187 29.808 345.123 29.424C345.123 28.976 345.059 28.528 344.931 28.08C344.675 26.928 344.387 25.808 344.067 24.72C343.747 23.568 343.363 22.48 342.915 21.456L342.051 19.152C341.859 18.512 341.635 17.904 341.379 17.328C341.123 16.688 340.835 16.08 340.515 15.504C340.451 15.376 340.387 15.248 340.323 15.12C340.259 14.928 340.195 14.768 340.131 14.64L339.747 14.256C339.555 14 339.331 14 339.075 14.256C339.011 14.256 338.915 14.32 338.787 14.448C338.339 15.024 337.923 15.632 337.539 16.272C337.219 16.912 337.027 17.616 336.963 18.384C336.899 18.64 336.835 18.896 336.771 19.152C336.771 19.408 336.771 19.696 336.771 20.016V24.144C336.707 25.04 336.674 25.968 336.674 26.928C336.739 27.888 336.707 28.816 336.579 29.712C336.515 29.904 336.483 30.096 336.483 30.288C336.547 30.48 336.579 30.672 336.579 30.864C336.643 31.248 336.674 31.632 336.674 32.016C336.674 32.336 336.674 32.688 336.674 33.072C336.674 33.712 336.739 34.096 336.867 34.224C337.059 34.352 337.475 34.384 338.115 34.32ZM387.32 66.672C386.936 66.672 386.68 66.64 386.552 66.576C386.232 66.448 385.912 66.384 385.592 66.384C385.336 66.448 385.048 66.48 384.728 66.48C384.664 66.48 384.6 66.48 384.536 66.48C384.472 66.544 384.408 66.576 384.344 66.576C383.896 66.64 383.448 66.672 383 66.672C382.616 66.672 382.232 66.608 381.848 66.48C381.784 66.416 381.72 66.384 381.656 66.384C381.208 66.448 380.824 66.32 380.504 66C380.184 65.68 379.864 65.392 379.544 65.136C379.224 64.816 379.064 64.464 379.064 64.08L378.776 63.312C378.584 62.864 378.52 62.448 378.584 62.064C378.648 61.936 378.648 61.808 378.584 61.68C378.584 61.552 378.584 61.424 378.584 61.296C378.52 61.168 378.488 61.04 378.488 60.912C378.488 60.72 378.456 60.56 378.392 60.432C378.264 59.856 378.168 59.28 378.104 58.704C378.104 58.064 378.136 57.456 378.2 56.88C378.264 56.496 378.488 55.856 378.872 54.96C379.256 54 379.48 53.424 379.544 53.232C379.736 52.912 379.832 52.656 379.832 52.464C379.768 51.76 379.736 51.056 379.736 50.352C379.8 49.584 379.832 48.848 379.832 48.144C379.832 47.696 379.928 47.344 380.12 47.088C380.376 46.64 380.408 46.16 380.216 45.648L379.928 44.592C379.544 43.888 379.576 43.28 380.024 42.768C380.024 42.704 380.024 42.672 380.024 42.672C380.088 42.608 380.12 42.544 380.12 42.48C380.248 42.352 380.28 42.192 380.216 42C380.152 41.744 380.12 41.552 380.12 41.424C380.12 41.168 380.152 40.912 380.216 40.656C380.344 40.336 380.376 40.048 380.312 39.792C380.312 39.792 380.248 39.728 380.12 39.6C380.056 39.472 380.024 39.216 380.024 38.832C380.088 38.448 380.12 38.224 380.12 38.16V35.472C380.184 35.152 380.216 34.864 380.216 34.608C380.216 34.288 380.248 33.968 380.312 33.648C380.376 33.264 380.376 32.88 380.312 32.496C380.312 32.048 380.312 31.6 380.312 31.152C380.248 30.832 380.184 30.48 380.12 30.096C380.12 29.712 380.12 29.328 380.12 28.944C380.056 28.816 380.024 28.656 380.024 28.464C380.024 28.272 380.024 28.112 380.024 27.984C379.96 27.664 379.896 27.344 379.832 27.024C379.832 26.704 379.832 26.384 379.832 26.064C379.832 25.936 379.704 25.52 379.448 24.816C379.192 24.048 379.096 23.408 379.16 22.896C379.224 22.768 379.256 22.608 379.256 22.416C379.256 22.224 379.192 22.064 379.064 21.936C378.936 21.872 378.872 21.744 378.872 21.552V21.264C379.064 20.496 378.968 19.728 378.584 18.96C378.328 18.576 378.232 18.192 378.296 17.808C378.296 17.296 378.072 16.912 377.624 16.656C377.304 16.336 377.016 15.952 376.76 15.504C376.504 15.056 376.344 14.608 376.28 14.16C376.216 13.84 376.184 13.52 376.184 13.2C376.184 12.88 376.184 12.592 376.184 12.336C376.184 12.08 376.216 11.92 376.28 11.856C376.536 11.6 376.664 11.312 376.664 10.992C376.664 10.608 376.696 10.32 376.76 10.128C376.824 10.064 376.888 10.032 376.952 10.032C377.016 10.032 377.08 10 377.144 9.936C377.4 9.872 377.528 9.648 377.528 9.264C377.4 9.008 377.336 8.784 377.336 8.592C377.272 8.33599 377.368 8.112 377.624 7.92C377.752 7.664 377.912 7.6 378.104 7.72799C378.552 7.92 379.064 7.856 379.64 7.536C379.896 7.408 380.056 7.344 380.12 7.344C380.312 7.344 380.408 7.344 380.408 7.344C380.472 7.28 380.664 7.248 380.984 7.248C381.368 7.312 381.72 7.184 382.04 6.86399C382.488 6.416 383.032 6.192 383.672 6.192H389.624C391.096 6.256 392.568 6.256 394.04 6.192C395.512 6.128 396.952 6.096 398.36 6.096C398.68 6.096 398.936 6.096 399.128 6.096C399.384 6.032 399.64 5.968 399.896 5.904C400.28 5.712 400.728 5.616 401.24 5.616H403.448C403.96 5.616 404.408 5.616 404.792 5.616C405.24 5.552 405.688 5.488 406.136 5.424C406.392 5.36 406.616 5.328 406.808 5.328C407.064 5.328 407.32 5.328 407.576 5.328C407.832 5.328 408.088 5.328 408.344 5.328C408.6 5.328 408.856 5.296 409.112 5.232C409.624 5.168 410.168 5.136 410.744 5.136C411.32 5.072 411.864 5.04 412.376 5.04C412.632 5.04 412.856 5.04 413.048 5.04C413.304 4.976 413.56 4.912 413.816 4.848C414.328 4.72 414.808 4.65599 415.256 4.65599C415.768 4.592 416.248 4.528 416.696 4.464C417.208 4.4 417.688 4.336 418.136 4.272C418.648 4.208 419.128 4.144 419.576 4.08C420.152 4.08 420.568 4.144 420.824 4.272C421.208 4.528 421.56 4.752 421.88 4.944C422.264 5.136 422.616 5.392 422.936 5.712C423.192 5.968 423.352 6.192 423.416 6.384C423.48 6.64 423.544 6.896 423.608 7.152C423.672 7.408 423.736 7.696 423.8 8.016V8.688C423.736 9.008 423.672 9.36 423.608 9.744C423.608 10.064 423.576 10.416 423.512 10.8C423.384 11.056 423.224 11.28 423.032 11.472L421.304 13.2C420.664 13.392 420.024 13.52 419.384 13.584C418.808 13.648 418.2 13.648 417.56 13.584H416.888C416.568 13.648 416.248 13.68 415.928 13.68C415.608 13.68 415.288 13.648 414.968 13.584C414.584 13.52 414.2 13.52 413.816 13.584C413.432 13.584 413.048 13.584 412.664 13.584C412.408 13.584 412.152 13.616 411.896 13.68C411.704 13.68 411.48 13.648 411.224 13.584C410.904 13.52 410.584 13.52 410.264 13.584C410.008 13.584 409.72 13.616 409.4 13.68C409.144 13.68 408.856 13.712 408.536 13.776C408.28 13.776 407.992 13.776 407.672 13.776C406.84 13.904 405.944 13.968 404.984 13.968C404.088 13.968 403.192 14.032 402.296 14.16C401.72 14.096 401.176 14.128 400.664 14.256C400.152 14.32 399.608 14.384 399.032 14.448C398.52 14.512 397.976 14.544 397.4 14.544C396.824 14.544 396.28 14.608 395.768 14.736C395.128 14.736 394.488 14.832 393.848 15.024C393.272 15.152 392.664 15.248 392.024 15.312L391.352 15.408C390.904 15.408 390.488 15.472 390.104 15.6C389.72 15.664 389.304 15.76 388.856 15.888C388.6 15.952 388.344 16.016 388.088 16.08C387.832 16.08 387.544 16.112 387.224 16.176C387.032 16.176 386.808 16.24 386.552 16.368C386.36 16.432 386.264 16.624 386.264 16.944L386.552 17.808C386.616 17.936 386.584 18.256 386.456 18.768C386.392 19.28 386.328 19.664 386.264 19.92C386.264 20.112 386.296 20.304 386.36 20.496C386.424 20.688 386.488 20.88 386.552 21.072C386.744 21.584 386.84 22.16 386.84 22.8C386.84 23.376 386.904 23.92 387.032 24.432C387.096 24.688 387.128 24.976 387.128 25.296C387.128 25.552 387.16 25.84 387.224 26.16C387.224 26.288 387.224 26.448 387.224 26.64C387.288 26.768 387.32 26.928 387.32 27.12C387.32 27.312 387.288 27.44 387.224 27.504C387.032 27.76 386.936 28.048 386.936 28.368C386.936 28.688 386.936 29.008 386.936 29.328C387.256 29.968 387.416 30.608 387.416 31.248C387.416 31.888 387.416 32.528 387.416 33.168C387.416 33.36 387.576 33.424 387.896 33.36H387.992C388.12 33.104 388.248 32.912 388.376 32.784C388.568 32.784 388.792 32.72 389.048 32.592C389.24 32.464 389.496 32.4 389.816 32.4C390.328 32.464 390.808 32.464 391.256 32.4C391.704 32.272 392.152 32.144 392.6 32.016C395.608 31.248 398.424 30.256 401.048 29.04C401.752 28.72 402.488 28.464 403.256 28.272C404.024 28.016 404.792 27.856 405.56 27.792H405.848C406.424 27.728 407 27.664 407.576 27.6C408.152 27.536 408.728 27.504 409.304 27.504C410.072 27.44 410.808 27.344 411.512 27.216C412.28 27.088 413.048 26.992 413.816 26.928C414.264 26.8 414.68 26.704 415.064 26.64C415.448 26.512 415.864 26.352 416.312 26.16C417.144 25.84 417.912 25.68 418.616 25.68C419.128 25.744 419.608 25.872 420.056 26.064C420.504 26.192 420.952 26.384 421.4 26.64C422.36 27.28 422.84 28.24 422.84 29.52C422.84 30.032 422.776 30.544 422.648 31.056C422.584 31.568 422.552 32.08 422.552 32.592C422.552 32.72 422.488 32.848 422.36 32.976L422.072 33.456C422.008 33.712 421.944 33.968 421.88 34.224C421.816 34.48 421.656 34.672 421.4 34.8C421.016 35.12 420.6 35.472 420.152 35.856C419.768 36.176 419.32 36.4 418.808 36.528C418.552 36.592 418.296 36.656 418.04 36.72C417.848 36.784 417.624 36.816 417.368 36.816C416.344 36.816 415.288 36.88 414.2 37.008C413.176 37.136 412.12 37.264 411.032 37.392C410.2 37.456 409.368 37.552 408.536 37.68C407.768 37.808 406.968 37.872 406.136 37.872C405.368 37.872 404.504 38.032 403.544 38.352C402.904 38.48 402.232 38.608 401.528 38.736C400.824 38.864 400.12 38.96 399.416 39.024C398.904 39.088 398.36 39.184 397.784 39.312C397.272 39.376 396.76 39.44 396.248 39.504L394.616 39.792C394.488 39.856 394.296 39.888 394.04 39.888C393.592 40.016 393.144 40.112 392.696 40.176C392.248 40.24 391.8 40.336 391.352 40.464C390.904 40.528 390.456 40.624 390.008 40.752C389.624 40.88 389.208 41.008 388.76 41.136C388.44 41.2 388.184 41.328 387.992 41.52C387.8 41.648 387.64 41.84 387.512 42.096C387.448 42.288 387.448 42.48 387.512 42.672C387.576 42.928 387.544 43.184 387.416 43.44C387.48 44.08 387.512 44.72 387.512 45.36C387.576 46 387.576 46.64 387.512 47.28C387.64 47.792 387.672 48.304 387.608 48.816C387.608 49.328 387.576 49.84 387.512 50.352C387.384 51.12 387.416 51.76 387.608 52.272C387.8 53.104 387.736 53.968 387.416 54.864C387.288 55.248 387.288 55.504 387.416 55.632C387.544 55.824 387.544 56.048 387.416 56.304V56.88C387.352 57.392 387.576 57.648 388.088 57.648H388.28C388.728 57.648 389.176 57.808 389.624 58.128C389.944 58.448 390.328 58.544 390.776 58.416L393.464 58.128C393.848 58.064 394.232 58.032 394.616 58.032C395 57.968 395.384 57.936 395.768 57.936C395.896 57.872 396.088 57.904 396.344 58.032C396.664 58.224 396.952 58.256 397.208 58.128C397.336 58 397.496 57.904 397.688 57.84C397.944 57.776 398.136 57.68 398.264 57.552C398.648 57.168 399.128 57.04 399.704 57.168C400.216 57.296 400.632 57.264 400.952 57.072C401.528 56.88 402.072 56.816 402.584 56.88C402.904 56.944 403.224 56.912 403.544 56.784C403.864 56.656 404.184 56.592 404.504 56.592C404.632 56.592 404.728 56.624 404.792 56.688C404.856 56.688 404.92 56.656 404.984 56.592C405.112 56.592 405.24 56.56 405.368 56.496C405.496 56.432 405.592 56.4 405.656 56.4C406.104 56.208 406.52 56.144 406.904 56.208C407.224 56.208 407.384 56.208 407.384 56.208C407.64 56.144 407.864 56.144 408.056 56.208C408.312 56.272 408.536 56.368 408.728 56.496C409.048 56.56 409.304 56.656 409.496 56.784C409.752 56.912 410.008 57.008 410.264 57.072C410.392 57.072 410.488 57.104 410.552 57.168C410.872 57.424 411.256 57.648 411.704 57.84C412.216 58.032 412.504 58.256 412.568 58.512C412.696 58.896 412.76 59.28 412.76 59.664C412.76 59.984 412.792 60.336 412.856 60.72C412.856 60.912 412.824 61.104 412.76 61.296C412.76 61.488 412.728 61.68 412.664 61.872C412.536 62.128 412.376 62.416 412.184 62.736C412.056 63.056 411.864 63.344 411.608 63.6C411.48 63.728 411.352 63.856 411.224 63.984C411.16 64.112 411.064 64.24 410.936 64.368C410.68 64.624 410.392 64.848 410.072 65.04C409.752 65.232 409.4 65.328 409.016 65.328C408.76 65.328 408.568 65.36 408.44 65.424C408.184 65.552 407.928 65.616 407.672 65.616C407.416 65.616 407.128 65.616 406.808 65.616C406.36 65.68 405.912 65.744 405.464 65.808C405.08 65.808 404.664 65.776 404.216 65.712C403.96 65.648 403.736 65.648 403.544 65.712C402.904 65.904 402.264 65.936 401.624 65.808C400.984 65.808 400.344 65.84 399.704 65.904C399.128 65.904 398.552 65.904 397.976 65.904H396.728C396.536 65.904 396.376 65.936 396.248 66C395.992 66.128 395.672 66.192 395.288 66.192C394.968 66.192 394.648 66.16 394.328 66.096H393.368C393.304 66.096 393.208 66.096 393.08 66.096C392.952 66.16 392.824 66.16 392.696 66.096C392.504 66.032 392.312 66 392.12 66C391.992 66.064 391.832 66.128 391.64 66.192C391.512 66.192 391.384 66.192 391.256 66.192C391.192 66.256 391.096 66.288 390.968 66.288C390.328 66.224 389.72 66.224 389.144 66.288C388.568 66.416 387.96 66.544 387.32 66.672ZM444.617 67.344C444.169 67.344 443.625 67.184 442.985 66.864C442.665 66.672 442.409 66.416 442.217 66.096C442.153 65.904 441.993 65.904 441.737 66.096C441.545 66.224 441.385 66.224 441.257 66.096C441.065 65.904 440.873 65.776 440.681 65.712C440.425 65.712 440.297 65.616 440.297 65.424C440.297 65.232 440.265 65.072 440.201 64.944C440.201 64.752 440.137 64.592 440.009 64.464C439.625 64.336 439.369 64.016 439.241 63.504C439.177 63.312 439.113 63.152 439.049 63.024C438.985 62.832 438.889 62.64 438.761 62.448C438.633 62.192 438.569 61.968 438.569 61.776C438.505 61.584 438.441 61.424 438.377 61.296C438.377 61.104 438.313 60.912 438.185 60.72C438.121 60.272 437.993 59.856 437.801 59.472C437.609 59.088 437.449 58.672 437.321 58.224C437.193 57.968 437.129 57.616 437.129 57.168C437.129 56.016 437.321 54.96 437.705 54C438.025 53.424 438.121 52.848 437.993 52.272C437.929 52.016 437.929 51.76 437.993 51.504C438.121 51.248 438.153 50.992 438.089 50.736C438.025 50.48 437.961 50.256 437.897 50.064C437.897 49.872 437.897 49.648 437.897 49.392C437.833 49.264 437.801 49.104 437.801 48.912C437.801 48.528 437.801 48.144 437.801 47.76C437.801 47.312 437.737 46.864 437.609 46.416C437.545 46.224 437.513 45.936 437.513 45.552V42C437.449 41.168 437.353 40.336 437.225 39.504C437.097 38.672 436.937 37.84 436.745 37.008C436.745 36.816 436.713 36.624 436.649 36.432C436.649 36.24 436.649 36.048 436.649 35.856C436.649 34.448 436.425 33.072 435.977 31.728V30.864C436.105 30.16 436.041 29.616 435.785 29.232C435.721 28.976 435.689 28.624 435.689 28.176V28.08C435.689 27.44 435.657 26.8 435.593 26.16C435.593 25.52 435.625 24.88 435.689 24.24C435.817 23.088 435.817 21.872 435.689 20.592C435.689 20.08 435.689 19.568 435.689 19.056C435.689 18.544 435.657 18.064 435.593 17.616V17.04C435.721 16.72 435.785 16.432 435.785 16.176C435.785 15.92 435.785 15.664 435.785 15.408C435.785 14.64 435.753 13.904 435.689 13.2C435.689 12.432 435.625 11.696 435.497 10.992C435.497 10.8 435.497 10.608 435.497 10.416C435.497 10.16 435.465 9.936 435.401 9.744C435.401 9.296 435.241 8.91199 434.921 8.592L434.249 8.016C433.609 7.632 433.193 7.024 433.001 6.192C432.937 6.064 432.905 5.968 432.905 5.904C432.905 5.776 432.873 5.648 432.809 5.51999C432.681 5.2 432.745 4.91199 433.001 4.65599C433.193 4.4 433.321 4.144 433.385 3.888C433.385 3.696 433.417 3.536 433.481 3.408C433.609 3.216 433.705 3.024 433.769 2.832C433.833 2.64 433.897 2.416 433.961 2.16C434.089 1.968 434.185 1.904 434.249 1.96799C434.697 1.96799 435.017 1.904 435.209 1.776C435.657 1.456 436.137 1.392 436.649 1.584C436.777 1.648 436.969 1.616 437.225 1.488C437.289 1.488 437.321 1.456 437.321 1.392C437.641 1.072 437.993 0.911997 438.377 0.911997C438.761 0.847998 439.177 0.847998 439.625 0.911997C439.689 0.911997 439.753 0.943996 439.817 1.008C439.881 1.008 439.945 1.008 440.009 1.008C440.521 1.136 441.001 1.264 441.449 1.392C441.961 1.456 442.441 1.456 442.889 1.392C443.209 1.392 443.529 1.424 443.849 1.488C444.233 1.552 444.585 1.584 444.905 1.584C445.161 1.584 445.385 1.616 445.577 1.68C445.833 1.744 446.057 1.808 446.249 1.872C446.505 1.936 446.729 2.032 446.921 2.16C447.113 2.224 447.337 2.256 447.593 2.256C447.913 2.32 448.169 2.384 448.361 2.44799C448.617 2.512 448.873 2.608 449.129 2.736C449.961 3.184 450.793 3.6 451.625 3.984C452.009 4.176 452.361 4.432 452.681 4.752C453.129 5.072 453.513 5.264 453.833 5.328C453.897 5.328 453.961 5.36 454.025 5.424C454.089 5.424 454.153 5.424 454.217 5.424C454.281 5.488 454.345 5.51999 454.409 5.51999C454.473 5.51999 454.537 5.552 454.601 5.616C454.921 5.936 455.305 6.192 455.753 6.384C456.265 6.512 456.681 6.736 457.001 7.056C457.129 7.184 457.321 7.312 457.577 7.44C458.089 7.632 458.537 7.92 458.921 8.304C459.049 8.432 459.145 8.496 459.209 8.496C459.465 8.496 459.753 8.656 460.073 8.976L462.089 11.088C462.345 11.344 462.537 11.568 462.665 11.76C462.985 12.208 463.337 12.624 463.721 13.008C464.105 13.392 464.489 13.776 464.873 14.16C465.001 14.288 465.129 14.448 465.257 14.64C465.449 14.768 465.577 14.928 465.641 15.12C465.705 15.248 465.801 15.376 465.929 15.504C466.057 15.568 466.153 15.664 466.217 15.792C466.921 16.56 467.593 17.36 468.233 18.192C468.937 19.024 469.577 19.888 470.153 20.784C470.473 21.232 470.761 21.712 471.017 22.224C471.273 22.736 471.497 23.248 471.689 23.76C471.881 24.208 472.073 24.656 472.265 25.104C472.521 25.552 472.745 26 472.937 26.448C473.129 27.152 473.353 27.792 473.609 28.368C473.865 29.2 474.121 30 474.377 30.768C474.633 31.536 474.857 32.368 475.049 33.264L475.337 34.512C475.337 35.024 475.337 35.568 475.337 36.144C475.401 36.656 475.433 37.2 475.433 37.776C475.433 38.032 475.401 38.256 475.337 38.448C475.337 38.64 475.273 38.864 475.145 39.12C475.017 39.504 474.953 39.856 474.953 40.176C474.889 40.816 474.729 41.424 474.473 42C474.281 42.576 474.057 43.12 473.801 43.632C473.225 44.656 472.713 45.68 472.265 46.704C472.137 46.96 472.009 47.216 471.881 47.472C471.817 47.664 471.721 47.888 471.593 48.144L471.017 49.296C470.569 50.192 470.025 51.088 469.385 51.984C468.809 52.816 468.169 53.616 467.465 54.384C467.209 54.704 466.889 55.024 466.505 55.344C466.185 55.6 465.865 55.888 465.545 56.208C464.905 56.784 464.265 57.36 463.625 57.936C462.985 58.448 462.313 58.96 461.609 59.472C460.969 59.92 460.297 60.336 459.593 60.72C458.953 61.104 458.249 61.424 457.481 61.68C457.097 61.744 456.713 61.936 456.329 62.256C455.945 62.512 455.529 62.768 455.081 63.024C454.697 63.28 454.281 63.568 453.833 63.888C453.641 63.952 453.449 64.048 453.257 64.176C453.065 64.24 452.841 64.304 452.585 64.368C452.393 64.432 452.169 64.496 451.913 64.56C451.721 64.624 451.529 64.688 451.337 64.752C451.081 64.816 450.825 64.912 450.569 65.04C450.377 65.168 450.185 65.328 449.993 65.52C449.545 65.84 449.065 66.096 448.553 66.288C448.041 66.544 447.529 66.832 447.017 67.152C446.889 67.216 446.665 67.248 446.345 67.248C446.153 67.312 445.961 67.312 445.769 67.248C445.577 67.248 445.385 67.248 445.193 67.248V67.344H444.617ZM448.457 56.592C449.097 56.592 449.641 56.464 450.089 56.208C450.601 56.016 451.081 55.792 451.529 55.536C451.977 55.28 452.393 54.992 452.777 54.672L453.929 53.52C454.569 53.008 455.145 52.464 455.657 51.888C456.233 51.312 456.841 50.8 457.481 50.352C457.609 50.224 457.673 50.16 457.673 50.16C457.929 49.904 458.153 49.68 458.345 49.488C458.601 49.232 458.825 48.976 459.017 48.72C459.145 48.592 459.305 48.432 459.497 48.24C459.689 48.048 459.817 47.888 459.881 47.76C460.137 47.312 460.489 46.928 460.937 46.608C461.257 46.416 461.449 46.224 461.513 46.032C461.641 45.712 461.801 45.392 461.993 45.072C462.249 44.752 462.505 44.464 462.761 44.208C463.081 43.824 463.401 43.248 463.721 42.48L464.105 41.52C464.489 40.624 464.681 39.792 464.681 39.024C464.745 38.832 464.777 38.544 464.777 38.16C464.841 37.2 464.777 36.176 464.585 35.088C464.521 34.768 464.457 34.448 464.393 34.128C464.329 33.808 464.297 33.52 464.297 33.264C464.233 33.008 464.169 32.784 464.105 32.592C464.105 32.336 464.041 32.112 463.913 31.92C463.785 31.664 463.689 31.408 463.625 31.152C463.561 30.896 463.497 30.64 463.433 30.384C463.433 29.936 463.369 29.552 463.241 29.232C463.113 28.848 462.985 28.464 462.857 28.08C462.665 27.696 462.473 27.312 462.281 26.928C462.089 26.48 461.929 26.032 461.801 25.584L461.705 25.2C461.513 24.944 461.353 24.688 461.225 24.432C461.161 24.112 461.065 23.824 460.937 23.568C460.681 22.992 460.425 22.416 460.169 21.84C459.977 21.264 459.721 20.72 459.401 20.208C459.081 19.632 458.729 19.056 458.345 18.48C458.025 17.904 457.609 17.392 457.097 16.944C455.625 15.344 453.929 13.904 452.009 12.624C450.857 11.792 449.705 11.248 448.553 10.992C448.105 10.864 447.593 10.768 447.017 10.704C446.441 10.576 445.897 10.48 445.385 10.416C445.193 10.416 445.033 10.48 444.905 10.608C444.585 10.864 444.425 11.184 444.425 11.568C444.425 12.016 444.393 12.496 444.329 13.008C444.329 13.456 444.329 13.936 444.329 14.448C444.457 15.344 444.425 16.08 444.233 16.656C444.169 16.912 444.105 17.168 444.041 17.424C444.041 17.68 444.073 17.968 444.137 18.288C444.265 18.672 444.233 19.024 444.041 19.344C443.849 19.728 443.849 20.144 444.041 20.592C444.297 21.104 444.361 21.744 444.233 22.512C444.041 23.28 444.041 24.048 444.233 24.816C444.297 25.072 444.329 25.328 444.329 25.584C444.393 25.84 444.393 26.128 444.329 26.448C444.329 27.152 444.361 27.856 444.425 28.56C444.553 29.264 444.649 29.968 444.713 30.672C444.713 30.8 444.777 30.992 444.905 31.248V32.784C444.905 32.912 444.873 33.072 444.809 33.264C444.809 33.392 444.841 33.52 444.905 33.648C445.033 34.16 445.129 34.704 445.193 35.28C445.321 35.792 445.449 36.304 445.577 36.816C445.577 36.944 445.609 37.104 445.673 37.296C445.737 37.424 445.769 37.584 445.769 37.776C445.769 38.224 445.801 38.672 445.865 39.12C445.929 39.568 445.993 40.048 446.057 40.56C446.249 42.352 446.537 44.176 446.921 46.032C447.113 46.8 447.209 47.6 447.209 48.432C447.209 48.624 447.209 48.848 447.209 49.104C447.209 49.296 447.241 49.488 447.305 49.68C447.433 50.128 447.497 50.576 447.497 51.024C447.497 51.472 447.497 51.92 447.497 52.368C447.497 52.496 447.465 52.656 447.401 52.848C447.401 53.04 447.433 53.2 447.497 53.328C447.625 53.648 447.689 53.968 447.689 54.288C447.689 54.544 447.689 54.832 447.689 55.152C447.689 55.408 447.753 55.728 447.881 56.112C447.881 56.432 448.073 56.592 448.457 56.592ZM495.617 67.344C495.169 67.344 494.625 67.184 493.985 66.864C493.665 66.672 493.409 66.416 493.217 66.096C493.153 65.904 492.993 65.904 492.737 66.096C492.545 66.224 492.385 66.224 492.257 66.096C492.065 65.904 491.873 65.776 491.681 65.712C491.425 65.712 491.297 65.616 491.297 65.424C491.297 65.232 491.265 65.072 491.201 64.944C491.201 64.752 491.137 64.592 491.009 64.464C490.625 64.336 490.369 64.016 490.241 63.504C490.177 63.312 490.113 63.152 490.049 63.024C489.985 62.832 489.889 62.64 489.761 62.448C489.633 62.192 489.569 61.968 489.569 61.776C489.505 61.584 489.441 61.424 489.377 61.296C489.377 61.104 489.313 60.912 489.185 60.72C489.121 60.272 488.993 59.856 488.801 59.472C488.609 59.088 488.449 58.672 488.321 58.224C488.193 57.968 488.129 57.616 488.129 57.168C488.129 56.016 488.321 54.96 488.705 54C489.025 53.424 489.121 52.848 488.993 52.272C488.929 52.016 488.929 51.76 488.993 51.504C489.121 51.248 489.153 50.992 489.089 50.736C489.025 50.48 488.961 50.256 488.897 50.064C488.897 49.872 488.897 49.648 488.897 49.392C488.833 49.264 488.801 49.104 488.801 48.912C488.801 48.528 488.801 48.144 488.801 47.76C488.801 47.312 488.737 46.864 488.609 46.416C488.545 46.224 488.513 45.936 488.513 45.552V42C488.449 41.168 488.353 40.336 488.225 39.504C488.097 38.672 487.937 37.84 487.745 37.008C487.745 36.816 487.713 36.624 487.649 36.432C487.649 36.24 487.649 36.048 487.649 35.856C487.649 34.448 487.425 33.072 486.977 31.728V30.864C487.105 30.16 487.041 29.616 486.785 29.232C486.721 28.976 486.689 28.624 486.689 28.176V28.08C486.689 27.44 486.657 26.8 486.593 26.16C486.593 25.52 486.625 24.88 486.689 24.24C486.817 23.088 486.817 21.872 486.689 20.592C486.689 20.08 486.689 19.568 486.689 19.056C486.689 18.544 486.657 18.064 486.593 17.616V17.04C486.721 16.72 486.785 16.432 486.785 16.176C486.785 15.92 486.785 15.664 486.785 15.408C486.785 14.64 486.753 13.904 486.689 13.2C486.689 12.432 486.625 11.696 486.497 10.992C486.497 10.8 486.497 10.608 486.497 10.416C486.497 10.16 486.465 9.936 486.401 9.744C486.401 9.296 486.241 8.91199 485.921 8.592L485.249 8.016C484.609 7.632 484.193 7.024 484.001 6.192C483.937 6.064 483.905 5.968 483.905 5.904C483.905 5.776 483.873 5.648 483.809 5.51999C483.681 5.2 483.745 4.91199 484.001 4.65599C484.193 4.4 484.321 4.144 484.385 3.888C484.385 3.696 484.417 3.536 484.481 3.408C484.609 3.216 484.705 3.024 484.769 2.832C484.833 2.64 484.897 2.416 484.961 2.16C485.089 1.968 485.185 1.904 485.249 1.96799C485.697 1.96799 486.017 1.904 486.209 1.776C486.657 1.456 487.137 1.392 487.649 1.584C487.777 1.648 487.969 1.616 488.225 1.488C488.289 1.488 488.321 1.456 488.321 1.392C488.641 1.072 488.993 0.911997 489.377 0.911997C489.761 0.847998 490.177 0.847998 490.625 0.911997C490.689 0.911997 490.753 0.943996 490.817 1.008C490.881 1.008 490.945 1.008 491.009 1.008C491.521 1.136 492.001 1.264 492.449 1.392C492.961 1.456 493.441 1.456 493.889 1.392C494.209 1.392 494.529 1.424 494.849 1.488C495.233 1.552 495.585 1.584 495.905 1.584C496.161 1.584 496.385 1.616 496.577 1.68C496.833 1.744 497.057 1.808 497.249 1.872C497.505 1.936 497.729 2.032 497.921 2.16C498.113 2.224 498.337 2.256 498.593 2.256C498.913 2.32 499.169 2.384 499.361 2.44799C499.617 2.512 499.873 2.608 500.129 2.736C500.961 3.184 501.793 3.6 502.625 3.984C503.009 4.176 503.361 4.432 503.681 4.752C504.129 5.072 504.513 5.264 504.833 5.328C504.897 5.328 504.961 5.36 505.025 5.424C505.089 5.424 505.153 5.424 505.217 5.424C505.281 5.488 505.345 5.51999 505.409 5.51999C505.473 5.51999 505.537 5.552 505.601 5.616C505.921 5.936 506.305 6.192 506.753 6.384C507.265 6.512 507.681 6.736 508.001 7.056C508.129 7.184 508.321 7.312 508.577 7.44C509.089 7.632 509.537 7.92 509.921 8.304C510.049 8.432 510.145 8.496 510.209 8.496C510.465 8.496 510.753 8.656 511.073 8.976L513.089 11.088C513.345 11.344 513.537 11.568 513.665 11.76C513.985 12.208 514.337 12.624 514.721 13.008C515.105 13.392 515.489 13.776 515.873 14.16C516.001 14.288 516.129 14.448 516.257 14.64C516.449 14.768 516.577 14.928 516.641 15.12C516.705 15.248 516.801 15.376 516.929 15.504C517.057 15.568 517.153 15.664 517.217 15.792C517.921 16.56 518.593 17.36 519.233 18.192C519.937 19.024 520.577 19.888 521.153 20.784C521.473 21.232 521.761 21.712 522.017 22.224C522.273 22.736 522.497 23.248 522.689 23.76C522.881 24.208 523.073 24.656 523.265 25.104C523.521 25.552 523.745 26 523.937 26.448C524.129 27.152 524.353 27.792 524.609 28.368C524.865 29.2 525.121 30 525.377 30.768C525.633 31.536 525.857 32.368 526.049 33.264L526.337 34.512C526.337 35.024 526.337 35.568 526.337 36.144C526.401 36.656 526.433 37.2 526.433 37.776C526.433 38.032 526.401 38.256 526.337 38.448C526.337 38.64 526.273 38.864 526.145 39.12C526.017 39.504 525.953 39.856 525.953 40.176C525.889 40.816 525.729 41.424 525.473 42C525.281 42.576 525.057 43.12 524.801 43.632C524.225 44.656 523.713 45.68 523.265 46.704C523.137 46.96 523.009 47.216 522.881 47.472C522.817 47.664 522.721 47.888 522.593 48.144L522.017 49.296C521.569 50.192 521.025 51.088 520.385 51.984C519.809 52.816 519.169 53.616 518.465 54.384C518.209 54.704 517.889 55.024 517.505 55.344C517.185 55.6 516.865 55.888 516.545 56.208C515.905 56.784 515.265 57.36 514.625 57.936C513.985 58.448 513.313 58.96 512.609 59.472C511.969 59.92 511.297 60.336 510.593 60.72C509.953 61.104 509.249 61.424 508.481 61.68C508.097 61.744 507.713 61.936 507.329 62.256C506.945 62.512 506.529 62.768 506.081 63.024C505.697 63.28 505.281 63.568 504.833 63.888C504.641 63.952 504.449 64.048 504.257 64.176C504.065 64.24 503.841 64.304 503.585 64.368C503.393 64.432 503.169 64.496 502.913 64.56C502.721 64.624 502.529 64.688 502.337 64.752C502.081 64.816 501.825 64.912 501.569 65.04C501.377 65.168 501.185 65.328 500.993 65.52C500.545 65.84 500.065 66.096 499.553 66.288C499.041 66.544 498.529 66.832 498.017 67.152C497.889 67.216 497.665 67.248 497.345 67.248C497.153 67.312 496.961 67.312 496.769 67.248C496.577 67.248 496.385 67.248 496.193 67.248V67.344H495.617ZM499.457 56.592C500.097 56.592 500.641 56.464 501.089 56.208C501.601 56.016 502.081 55.792 502.529 55.536C502.977 55.28 503.393 54.992 503.777 54.672L504.929 53.52C505.569 53.008 506.145 52.464 506.657 51.888C507.233 51.312 507.841 50.8 508.481 50.352C508.609 50.224 508.673 50.16 508.673 50.16C508.929 49.904 509.153 49.68 509.345 49.488C509.601 49.232 509.825 48.976 510.017 48.72C510.145 48.592 510.305 48.432 510.497 48.24C510.689 48.048 510.817 47.888 510.881 47.76C511.137 47.312 511.489 46.928 511.937 46.608C512.257 46.416 512.449 46.224 512.513 46.032C512.641 45.712 512.801 45.392 512.993 45.072C513.249 44.752 513.505 44.464 513.761 44.208C514.081 43.824 514.401 43.248 514.721 42.48L515.105 41.52C515.489 40.624 515.681 39.792 515.681 39.024C515.745 38.832 515.777 38.544 515.777 38.16C515.841 37.2 515.777 36.176 515.585 35.088C515.521 34.768 515.457 34.448 515.393 34.128C515.329 33.808 515.297 33.52 515.297 33.264C515.233 33.008 515.169 32.784 515.105 32.592C515.105 32.336 515.041 32.112 514.913 31.92C514.785 31.664 514.689 31.408 514.625 31.152C514.561 30.896 514.497 30.64 514.433 30.384C514.433 29.936 514.369 29.552 514.241 29.232C514.113 28.848 513.985 28.464 513.857 28.08C513.665 27.696 513.473 27.312 513.281 26.928C513.089 26.48 512.929 26.032 512.801 25.584L512.705 25.2C512.513 24.944 512.353 24.688 512.225 24.432C512.161 24.112 512.065 23.824 511.937 23.568C511.681 22.992 511.425 22.416 511.169 21.84C510.977 21.264 510.721 20.72 510.401 20.208C510.081 19.632 509.729 19.056 509.345 18.48C509.025 17.904 508.609 17.392 508.097 16.944C506.625 15.344 504.929 13.904 503.009 12.624C501.857 11.792 500.705 11.248 499.553 10.992C499.105 10.864 498.593 10.768 498.017 10.704C497.441 10.576 496.897 10.48 496.385 10.416C496.193 10.416 496.033 10.48 495.905 10.608C495.585 10.864 495.425 11.184 495.425 11.568C495.425 12.016 495.393 12.496 495.329 13.008C495.329 13.456 495.329 13.936 495.329 14.448C495.457 15.344 495.425 16.08 495.233 16.656C495.169 16.912 495.105 17.168 495.041 17.424C495.041 17.68 495.073 17.968 495.137 18.288C495.265 18.672 495.233 19.024 495.041 19.344C494.849 19.728 494.849 20.144 495.041 20.592C495.297 21.104 495.361 21.744 495.233 22.512C495.041 23.28 495.041 24.048 495.233 24.816C495.297 25.072 495.329 25.328 495.329 25.584C495.393 25.84 495.393 26.128 495.329 26.448C495.329 27.152 495.361 27.856 495.425 28.56C495.553 29.264 495.649 29.968 495.713 30.672C495.713 30.8 495.777 30.992 495.905 31.248V32.784C495.905 32.912 495.873 33.072 495.809 33.264C495.809 33.392 495.841 33.52 495.905 33.648C496.033 34.16 496.129 34.704 496.193 35.28C496.321 35.792 496.449 36.304 496.577 36.816C496.577 36.944 496.609 37.104 496.673 37.296C496.737 37.424 496.769 37.584 496.769 37.776C496.769 38.224 496.801 38.672 496.865 39.12C496.929 39.568 496.993 40.048 497.057 40.56C497.249 42.352 497.537 44.176 497.921 46.032C498.113 46.8 498.209 47.6 498.209 48.432C498.209 48.624 498.209 48.848 498.209 49.104C498.209 49.296 498.241 49.488 498.305 49.68C498.433 50.128 498.497 50.576 498.497 51.024C498.497 51.472 498.497 51.92 498.497 52.368C498.497 52.496 498.465 52.656 498.401 52.848C498.401 53.04 498.433 53.2 498.497 53.328C498.625 53.648 498.689 53.968 498.689 54.288C498.689 54.544 498.689 54.832 498.689 55.152C498.689 55.408 498.753 55.728 498.881 56.112C498.881 56.432 499.073 56.592 499.457 56.592Z" fill="white"/>
</svg>
